<?xml version="1.0" encoding="UTF-8"?>
<svg
	width="13.791418mm"
	height="14.948975mm"
	viewBox="0 0 13.791418 14.948975"
	version="1.1"
	id="svg1"
	xml:space="preserve"
	xmlns="http://www.w3.org/2000/svg"
	xmlns:svg="http://www.w3.org/2000/svg">

	<defs id="defs1" />
	<g id="layer1" transform="translate(-47.176747,-70.794264)">
		<path
			style="fill:var(--fgcolor);"
			d="m 56.745854,77.816757 q 2.127693,0.496094 2.98759,1.20165 1.234723,1.003213 1.234723,2.601739 0,1.68672 -1.35599,2.789152 -1.664672,1.333942 -4.839676,1.333942 h -7.595754 v -0.407899 q 1.036286,0 1.400088,-0.187414 0.374827,-0.198437 0.518143,-0.507118 0.154341,-0.308681 0.154341,-1.521356 v -9.701399 q 0,-1.212675 -0.154341,-1.521356 -0.143316,-0.319705 -0.518143,-0.507118 -0.374826,-0.187413 -1.400088,-0.187413 v -0.4079 h 7.165806 q 2.568666,0 3.638025,0.463021 1.069358,0.451997 1.68672,1.367015 0.617362,0.903994 0.617362,1.929256 0,1.080383 -0.782727,1.929255 -0.782726,0.837848 -2.756079,1.333943 z M 52.733003,77.5191 q 1.565453,0 2.304082,-0.352778 0.749654,-0.352778 1.146529,-0.992189 0.396875,-0.63941 0.396875,-1.631598 0,-0.992189 -0.396875,-1.620575 -0.385851,-0.63941 -1.113456,-0.97014 -0.727605,-0.330729 -2.337155,-0.319705 z m 0,0.859897 v 4.795578 l -0.01102,0.551215 q 0,0.595313 0.297656,0.903994 0.308681,0.297657 0.903994,0.297657 0.881945,0 1.620575,-0.385851 0.749653,-0.396876 1.146529,-1.135505 0.396875,-0.749653 0.396875,-1.664672 0,-1.04731 -0.48507,-1.874133 -0.48507,-0.837849 -1.333942,-1.168578 -0.848873,-0.33073 -2.535593,-0.319705 z"
			id="text1" />
	</g>
</svg>
