<?xml version="1.0" encoding="UTF-8" ?>
<svg
  width="21.107246mm"
  height="20.928698mm"
  viewBox="0 0 21.107246 20.928698"
  version="1.1"
  id="svg1"
  xml:space="preserve"
  xmlns="http://www.w3.org/2000/svg"
  xmlns:svg="http://www.w3.org/2000/svg">
  
  <defs id="defs1" />
  <g id="layer1" transform="translate(-128.11727,-145.96319)">
    <g id="g62" transform="translate(38.699763,-34.31379)">
      <rect
        style="fill:var(--fgcolor);fill-opacity:1"
        id="rect19-9-6"
        width="21.026873"
        height="1.0964931"
        x="89.464996"
        y="180.27699" />
      <rect
        style="fill:var(--fgcolor);fill-opacity:1"
        id="rect19-6-5-6"
        width="21.026873"
        height="1.0964931"
        x="89.457016"
        y="200.10919" />
      <rect
        style="fill:var(--fgcolor);fill-opacity:1"
        id="rect19-6-1-7-3"
        width="1.0319951"
        height="20.897873"
        x="89.417503"
        y="180.28687" />
      <rect
        style="fillvar(--fgcolor);fill-opacity:1;"
        id="rect19-6-1-8-5-6"
        width="1.0319951"
        height="20.897873"
        x="109.49275"
        y="180.28807" />
      <path
        d="m 104.06176,186.01637 c -1.55731,1.78384 -2.63327,2.18024 -5.43644,1.95373 -3.114627,-0.25484 -4.218904,0.16989 -4.67194,1.89709 -0.368092,1.30248 -0.991019,2.20856 -1.557314,2.20856 -0.198204,0 -0.509666,0.1982 -0.70787,0.42471 -0.311463,0.3681 -0.226519,0.42473 0.396407,0.42473 1.019333,0 1.840462,-0.48135 2.12361,-1.21754 0.254833,-0.59461 0.254833,-0.59461 0.453037,0.1982 0.141574,0.53799 0.05663,1.10428 -0.254834,1.75552 -0.59461,1.27417 -0.59461,3.19957 -0.02832,3.42609 0.622925,0.22652 0.849444,-0.11326 0.453037,-0.59461 -0.396407,-0.48135 -0.169889,-2.15192 0.283148,-2.15192 0.141573,0 0.254833,0.39641 0.254833,0.84944 0,0.50966 0.169889,0.93439 0.424722,1.04765 0.594611,0.19821 0.906073,-0.11326 0.481351,-0.53799 -0.59461,-0.5946 -0.368092,-1.47236 0.849445,-3.11462 l 1.18922,-1.61395 0.991022,0.62294 c 0.537975,0.31145 1.500686,0.67955 2.151926,0.7645 1.07596,0.14156 1.13259,0.1982 1.35911,1.41573 0.53798,3.08631 0.59461,3.2562 1.27417,3.34115 0.70786,0.11325 0.84944,-0.42472 0.1982,-0.67955 -0.31146,-0.14158 -0.42472,-0.65125 -0.42472,-2.06699 0,-1.58563 0.11326,-2.06698 0.70787,-2.85979 0.3964,-0.53799 0.70787,-1.1326 0.70787,-1.3308 0,-0.1982 0.11326,-0.59461 0.28314,-0.87775 0.14158,-0.25484 0.39641,-0.82114 0.5663,-1.24586 0.22652,-0.70787 0.33978,-0.7645 1.01933,-0.50967 0.73619,0.28315 1.24585,0.16989 1.24585,-0.25483 0,-0.14157 -0.28315,-0.33977 -0.62292,-0.45303 -0.62293,-0.19821 -0.62293,-0.19821 -0.0849,-0.33978 1.3591,-0.33978 1.55731,-1.21754 0.28315,-1.21754 -0.3681,0 -0.7645,-0.14157 -0.84945,-0.28315 -0.0849,-0.16988 -0.59461,-0.28314 -1.07596,-0.28314 -0.70788,0.0283 -1.13259,0.28314 -1.98204,1.30247 z"
        id="path1"
        style="fill:var(--fgcolor);" />
    </g>
  </g>
</svg>
