<?xml version="1.0" encoding="UTF-8"?>
<svg
	width="9.9659853mm"
	height="14.948975mm"
	viewBox="0 0 9.9659853 14.948975"
	version="1.1"
	id="svg1"
	xml:space="preserve"
	xmlns="http://www.w3.org/2000/svg"
	xmlns:svg="http://www.w3.org/2000/svg">
	
	<defs id="defs1" />
	<g id="layer1" transform="translate(-69.713358,-70.611837)">
		<path style="fill:var(--fgcolor);"
			d="m 75.986195,85.152914 -0.121268,0.4079 h -6.151568 l 0.15434,-0.4079 q 0.926043,-0.02205 1.223699,-0.15434 0.48507,-0.187414 0.716581,-0.518143 0.363802,-0.518143 0.749653,-1.852085 l 2.601739,-9.017891 q 0.33073,-1.124481 0.33073,-1.697745 0,-0.286632 -0.143317,-0.48507 -0.143316,-0.198438 -0.440972,-0.297657 -0.286633,-0.110243 -1.135505,-0.110243 l 0.132292,-0.4079 h 5.776742 l -0.121268,0.4079 q -0.705556,-0.01102 -1.04731,0.154341 -0.496094,0.220486 -0.760678,0.628386 -0.253559,0.407899 -0.661459,1.807988 l -2.590714,9.017891 q -0.352778,1.245747 -0.352778,1.587501 0,0.275608 0.132292,0.474046 0.143316,0.187413 0.440972,0.297656 0.308681,0.09922 1.267797,0.165365 z"
			id="text2" />
	</g>
</svg>
