<?xml version="1.0" encoding="UTF-8" ?>
<svg
  width="22.632919mm"
  height="19.77762mm"
  viewBox="0 0 22.632919 19.77762"
  version="1.1"
  id="svg1"
  xml:space="preserve"
  xmlns="http://www.w3.org/2000/svg"
  xmlns:svg="http://www.w3.org/2000/svg">
  
  <defs id="defs1" />
  <g id="layer1" transform="translate(-133.30228,-93.971608)">
    <path
      d="m 138.15298,113.7382 h -4.8507 V 93.971602 h 4.8507 v 0.870921 h -3.19705 v 18.035787 h 3.19705 z m 1.11346,-14.574145 h 4.75148 v 0.4079 q -0.452,0 -0.63941,0.15434 -0.17639,0.154341 -0.17639,0.407895 0,0.26459 0.38585,0.8158 0.12127,0.17639 0.3638,0.55122 l 0.71658,1.14653 0.82683,-1.14653 q 0.79375,-1.09141 0.79375,-1.37804 0,-0.23151 -0.18742,-0.385851 -0.18741,-0.165364 -0.60633,-0.165364 v -0.4079 h 3.41753 v 0.4079 q -0.54019,0.03307 -0.93706,0.297656 -0.5402,0.374829 -1.47726,1.631599 l -1.37804,1.84106 2.51354,3.61598 q 0.92605,1.33394 1.32292,1.60955 0.39688,0.26458 1.02526,0.29765 v 0.39688 h -4.7625 v -0.39688 q 0.49609,0 0.7717,-0.22048 0.20946,-0.15434 0.20946,-0.4079 0,-0.25356 -0.70555,-1.27882 l -1.47726,-2.16077 -1.62058,2.16077 q -0.74965,1.00321 -0.74965,1.19062 0,0.26459 0.24253,0.48507 0.25356,0.20947 0.74966,0.23151 v 0.39688 h -3.29627 v -0.39688 q 0.39687,-0.0551 0.69453,-0.2756 0.41892,-0.31971 1.41111,-1.6316 l 2.11667,-2.8112 -1.91823,-2.77813 q -0.8158,-1.19063 -1.2678,-1.488284 -0.44097,-0.308681 -1.11345,-0.308681 z m 11.81806,-5.192453 h 4.8507 v 19.777628 h -4.8507 v -0.87092 h 3.19705 V 94.842523 h -3.19705 z"
      id="text62"
      style="fill:var(--fgcolor);" />
  </g>
</svg>
