<?xml version="1.0" encoding="UTF-8" ?>
<svg
  width="17.046125mm"
  height="24.451481mm"
  viewBox="0 0 17.046125 24.451481"
  version="1.1"
  id="svg1"
  xml:space="preserve"
  xmlns="http://www.w3.org/2000/svg"
  xmlns:svg="http://www.w3.org/2000/svg">
  
  <defs id="defs1" />
  <g id="layer1" transform="translate(-45.713399,-143.38911)">
    <rect
      style="fill:var(--fgcolor);"
      id="rect3-4"
      width="15.689189"
      height="1.277027"
      x="147.58807"
      y="41.579388"
      transform="rotate(54)" />
    <path
      d="m 58.513992,147.80388 v 5.1704 h -0.407899 q -0.198438,-1.48828 -0.716581,-2.37023 -0.507118,-0.88194 -1.45521,-1.40008 -0.948091,-0.51815 -1.962328,-0.51815 -1.146529,0 -1.896183,0.70556 -0.749653,0.69453 -0.749653,1.5875 0,0.68351 0.474046,1.24575 0.683507,0.82682 3.252173,2.20486 2.09462,1.12448 2.855298,1.73082 0.771702,0.59531 1.179602,1.41111 0.418924,0.8158 0.418924,1.70877 0,1.69775 -1.322918,2.93247 -1.311894,1.2237 -3.384465,1.2237 -0.650435,0 -1.223699,-0.0992 -0.341754,-0.0551 -1.422137,-0.39688 -1.069359,-0.35277 -1.355991,-0.35277 -0.275608,0 -0.440973,0.16536 -0.15434,0.16537 -0.231511,0.68351 h -0.407899 v -5.12631 h 0.407899 q 0.286633,1.60955 0.771703,2.41433 0.485069,0.79375 1.477258,1.32291 1.003213,0.52917 2.193839,0.52917 1.37804,0 2.17179,-0.7276 0.804776,-0.72761 0.804776,-1.7198 0,-0.55121 -0.308681,-1.11345 -0.297657,-0.56224 -0.937067,-1.04731 -0.429949,-0.33073 -2.34818,-1.40009 -1.918231,-1.08038 -2.73403,-1.71979 -0.804775,-0.63941 -1.223699,-1.41112 -0.418924,-0.7717 -0.418924,-1.69774 0,-1.60955 1.234723,-2.76711 1.234723,-1.16857 3.14193,-1.16857 1.190626,0 2.524569,0.58429 0.617362,0.2756 0.870921,0.2756 0.286632,0 0.463021,-0.16536 0.187414,-0.17639 0.297657,-0.69453 z"
      id="text7"
      style="fill:var(--fgcolor);"
      aria-label="S" />
    <rect
      style="fill:var(--fgcolor);"
      id="rect3-4-4"
      width="15.689189"
      height="1.277027"
      x="152.07047"
      y="52.09095"
      transform="rotate(54)" />
    <rect
      style="fill:var(--fgcolor);"
      id="rect3-4-6"
      width="15.689189"
      height="1.277027"
      x="143.85771"
      y="46.736847"
      transform="rotate(54)" />
    <rect
      style="fill:var(--fgcolor);"
      id="rect3-4-5"
      width="15.689189"
      height="1.277027"
      x="154.98753"
      y="47.107182"
      transform="rotate(54)" />
    <rect
      style="fill:var(--fgcolor);stroke:var(--fgcolor);stroke-width:1.465;stroke-dasharray:none;stroke-opacity:1"
      id="rect7"
      width="15.324324"
      height="22.986486"
      x="46.702702"
      y="144.12161" />
  </g>
</svg>
