<?xml version="1.0" encoding="UTF-8"?>
<svg
  width="15.689182mm"
  height="15.632476mm"
  viewBox="0 0 15.689182 15.632476"
  version="1.1"
  id="svg1"
  xml:space="preserve"
  xmlns="http://www.w3.org/2000/svg"
  xmlns:svg="http://www.w3.org/2000/svg">
  
  <defs id="defs1" />
  <g id="layer1" transform="translate(-110.21509,-70.452513)">
    <rect
      style="fill:var(--fgcolor);"
      id="rect3-0"
      width="15.689189"
      height="1.277027"
      x="110.21509"
      y="78.014069" />
    <path
      d="m 122.00048,70.452513 v 5.170405 h -0.4079 q -0.19843,-1.488283 -0.71658,-2.370229 -0.50711,-0.881945 -1.45521,-1.400088 -0.94809,-0.518143 -1.96232,-0.518143 -1.14653,0 -1.89619,0.705557 -0.74965,0.694532 -0.74965,1.587501 0,0.683508 0.47405,1.245748 0.6835,0.826824 3.25217,2.204863 2.09462,1.124481 2.8553,1.730818 0.7717,0.595313 1.1796,1.411113 0.41892,0.815799 0.41892,1.708769 0,1.697745 -1.32291,2.932468 -1.3119,1.223699 -3.38447,1.223699 -0.65043,0 -1.2237,-0.09922 -0.34175,-0.05512 -1.42214,-0.396875 -1.06935,-0.352778 -1.35599,-0.352778 -0.27561,0 -0.44097,0.165365 -0.15434,0.165364 -0.23151,0.683507 h -0.4079 v -5.126307 h 0.4079 q 0.28663,1.60955 0.7717,2.414325 0.48507,0.793751 1.47726,1.322918 1.00321,0.529167 2.19384,0.529167 1.37804,0 2.17179,-0.727604 0.80477,-0.727605 0.80477,-1.719794 0,-0.551216 -0.30868,-1.113456 -0.29765,-0.56224 -0.93706,-1.04731 -0.42995,-0.330729 -2.34818,-1.400088 -1.91823,-1.080383 -2.73403,-1.719794 -0.80478,-0.63941 -1.2237,-1.411112 -0.41893,-0.771702 -0.41893,-1.697745 0,-1.60955 1.23473,-2.767103 1.23472,-1.168578 3.14193,-1.168578 1.19062,0 2.52457,0.584289 0.61736,0.275608 0.87092,0.275608 0.28663,0 0.46302,-0.165365 0.18741,-0.176389 0.29765,-0.694532 z"
      id="text4"
      style="fill:var(--fgcolor);" />
  </g>
</svg>
