<?xml version="1.0" encoding="UTF-8"?>
<svg
  width="28.361429mm"
  height="17.50305mm"
  viewBox="0 0 28.361429 17.50305"
  version="1.1"
  id="svg1"
  xml:space="preserve"
  xmlns="http://www.w3.org/2000/svg"
  xmlns:svg="http://www.w3.org/2000/svg">
  
  <defs id="defs1" />
  <g id="layer1" transform="translate(-90.575907,-116.93351)">
    <path
      d="m 99.626867,123.60323 3.208073,4.78455 q 1.33395,1.98438 1.97336,2.51355 0.65043,0.51814 1.64262,0.57326 v 0.4079 h -6.41615 v -0.4079 q 0.63941,-0.011 0.94809,-0.13229 0.23151,-0.0992 0.37482,-0.29766 0.15434,-0.20946 0.15434,-0.41892 0,-0.25356 -0.0992,-0.50712 -0.0772,-0.18741 -0.60634,-0.97014 l -2.535594,-3.83646 -3.130906,4.01285 q -0.496095,0.63941 -0.595313,0.8599 -0.09922,0.20946 -0.09922,0.44097 0,0.35278 0.297656,0.58429 0.297657,0.23151 1.135505,0.26458 v 0.4079 h -5.302697 v -0.4079 q 0.562241,-0.0551 0.97014,-0.23151 0.683508,-0.28663 1.30087,-0.7717 0.617361,-0.48507 1.411112,-1.48828 l 3.527782,-4.45383 -2.943493,-4.31051 q -1.20165,-1.75286 -2.039499,-2.29305 -0.837848,-0.55122 -1.929255,-0.58429 v -0.4079 h 6.912247 v 0.4079 q -0.881946,0.0331 -1.212675,0.28663 -0.319705,0.25356 -0.319705,0.56224 0,0.4079 0.529167,1.19063 l 2.293058,3.42856 2.65686,-3.36242 q 0.46302,-0.59531 0.56224,-0.8158 0.11024,-0.22048 0.11024,-0.45199 0,-0.23151 -0.13229,-0.4079 -0.16536,-0.23151 -0.41892,-0.31971 -0.25356,-0.0992 -1.04731,-0.11024 v -0.4079 h 5.30269 v 0.4079 q -0.62838,0.0331 -1.02526,0.19844 -0.59531,0.25356 -1.0914,0.6835 -0.4961,0.42995 -1.40009,1.58751 z"
      id="text5-3"
      style="fill:var(--fgcolor);" />
    <path
      d="m 108.22171,124.3383 h 4.75148 v 0.40789 q -0.452,0 -0.63941,0.15435 -0.17639,0.15434 -0.17639,0.40789 0,0.26459 0.38585,0.8158 0.12127,0.17639 0.3638,0.55122 l 0.71658,1.14653 0.82682,-1.14653 q 0.79376,-1.09141 0.79376,-1.37804 0,-0.23151 -0.18742,-0.38585 -0.18741,-0.16537 -0.60634,-0.16537 v -0.40789 h 3.41754 v 0.40789 q -0.54019,0.0331 -0.93706,0.29766 -0.5402,0.37483 -1.47726,1.6316 l -1.37804,1.84106 2.51354,3.61598 q 0.92604,1.33394 1.32292,1.60955 0.39688,0.26458 1.02526,0.29765 v 0.39688 h -4.7625 v -0.39688 q 0.49609,0 0.7717,-0.22048 0.20946,-0.15434 0.20946,-0.4079 0,-0.25356 -0.70556,-1.27882 l -1.47725,-2.16077 -1.62058,2.16077 q -0.74965,1.00321 -0.74965,1.19062 0,0.26459 0.24253,0.48507 0.25356,0.20947 0.74966,0.23151 v 0.39688 h -3.29627 v -0.39688 q 0.39687,-0.0551 0.69453,-0.2756 0.41892,-0.31971 1.41111,-1.6316 l 2.11667,-2.8112 -1.91823,-2.77813 q -0.8158,-1.19063 -1.2678,-1.48828 -0.44097,-0.30869 -1.11345,-0.30869 z"
      id="text6-7"
      style="fill:var(--fgcolor);" />
  </g>
</svg>
