<?xml version="1.0" encoding="UTF-8" ?>

<svg
  width="28.361439mm"
  height="17.213137mm"
  viewBox="0 0 28.361439 17.213137"
  version="1.1"
  id="svg1"
  xml:space="preserve"
  xmlns="http://www.w3.org/2000/svg"
  xmlns:svg="http://www.w3.org/2000/svg">
  <defs id="defs1" />
  <g id="layer1" transform="translate(-51.611314,-114.32064)">
    <path
      d="m 60.662275,123.25452 3.208076,4.78455 q 1.333942,1.98438 1.973352,2.51355 0.650435,0.51814 1.642624,0.57326 v 0.4079 h -6.416153 v -0.4079 q 0.639411,-0.011 0.948092,-0.13229 0.23151,-0.0992 0.374826,-0.29766 0.154341,-0.20946 0.154341,-0.41892 0,-0.25356 -0.09922,-0.50712 -0.07717,-0.18741 -0.606338,-0.97014 l -2.535592,-3.83646 -3.130906,4.01285 q -0.496095,0.63941 -0.595313,0.8599 -0.09922,0.20946 -0.09922,0.44097 0,0.35278 0.297656,0.58429 0.297657,0.23151 1.135505,0.26458 v 0.4079 H 51.61131 v -0.4079 q 0.562241,-0.0551 0.97014,-0.23151 0.683508,-0.28663 1.30087,-0.7717 0.617361,-0.48507 1.411112,-1.48828 l 3.527782,-4.45383 -2.943493,-4.3105 q -1.20165,-1.75287 -2.039499,-2.29306 -0.837848,-0.55122 -1.929255,-0.58429 v -0.4079 h 6.912247 v 0.4079 q -0.881946,0.0331 -1.212675,0.28663 -0.319705,0.25356 -0.319705,0.56224 0,0.4079 0.529167,1.19063 l 2.293058,3.42856 2.65686,-3.36242 q 0.463021,-0.59531 0.56224,-0.8158 0.110243,-0.22048 0.110243,-0.45199 0,-0.23151 -0.132291,-0.4079 -0.165365,-0.23151 -0.418924,-0.31971 -0.25356,-0.0992 -1.047311,-0.11024 v -0.4079 h 5.302697 v 0.4079 q -0.628386,0.0331 -1.025262,0.19844 -0.595313,0.25356 -1.091407,0.6835 -0.496094,0.42995 -1.400088,1.58751 z"
      id="text5"
      style="fill:var(--fgcolor);" />
    <path
      d="m 69.257114,114.32065 h 4.75148 v 0.4079 q -0.451997,0 -0.63941,0.15434 -0.176389,0.15434 -0.176389,0.4079 0,0.26458 0.385851,0.8158 0.121268,0.17639 0.363803,0.55121 l 0.71658,1.14653 0.826824,-1.14653 q 0.793751,-1.0914 0.793751,-1.37804 0,-0.23151 -0.187414,-0.38585 -0.187413,-0.16536 -0.606337,-0.16536 v -0.4079 h 3.417538 v 0.4079 q -0.540191,0.0331 -0.937067,0.29765 -0.540191,0.37483 -1.477258,1.6316 l -1.37804,1.84106 2.513544,3.61598 q 0.926043,1.33394 1.322918,1.60955 0.396876,0.26458 1.025262,0.29766 v 0.39687 h -4.762505 v -0.39687 q 0.496094,0 0.771702,-0.22049 0.209462,-0.15434 0.209462,-0.4079 0,-0.25356 -0.705556,-1.27882 l -1.477259,-2.16077 -1.620574,2.16077 q -0.749654,1.00321 -0.749654,1.19063 0,0.26458 0.242535,0.48507 0.25356,0.20946 0.749654,0.23151 v 0.39687 h -3.296271 v -0.39687 q 0.396876,-0.0551 0.694532,-0.27561 0.418924,-0.31971 1.411113,-1.6316 l 2.116668,-2.8112 -1.918231,-2.77813 q -0.815799,-1.19062 -1.267796,-1.48828 -0.440973,-0.30868 -1.113456,-0.30868 z"
      id="text6"
      style="fill:var(--fgcolor);" />
  </g>
</svg>
