<?xml version="1.0" encoding="UTF-8"?>
<svg
	width="15.941162mm"
	height="17.320593mm"
	viewBox="0 0 15.941162 17.320593"
	version="1.1"
	id="svg1"
	xml:space="preserve"
	xmlns="http://www.w3.org/2000/svg"
	xmlns:svg="http://www.w3.org/2000/svg">
	
	<defs id="defs1" />
	<g id="layer1" transform="translate(-87.506403,-70.611837)">
		<path
			d="m 98.155889,71.01974 v -0.4079 h 5.291671 v 0.4079 h -0.56224 q -0.88194,0 -1.35599,0.738629 -0.23151,0.341754 -0.23151,1.587502 v 6.063374 q 0,2.248961 -0.452,3.494709 -0.44097,1.234723 -1.752864,2.127693 -1.300869,0.881945 -3.54983,0.881945 -2.447398,0 -3.715195,-0.848872 -1.267796,-0.848873 -1.796963,-2.282034 -0.352778,-0.981164 -0.352778,-3.682122 v -5.842888 q 0,-1.378039 -0.385851,-1.807988 -0.374827,-0.429948 -1.2237,-0.429948 h -0.56224 v -0.4079 h 6.46025 v 0.4079 h -0.573265 q -0.926042,0 -1.322918,0.584289 -0.275607,0.396875 -0.275607,1.653647 v 6.515372 q 0,0.870921 0.15434,1.995401 0.165365,1.12448 0.584289,1.752866 0.418924,0.628386 1.20165,1.036286 0.793751,0.4079 1.94028,0.4079 1.466234,0 2.623787,-0.639411 1.157554,-0.63941 1.576478,-1.631598 0.429947,-1.003213 0.429947,-3.384466 v -6.05235 q 0,-1.400088 -0.30868,-1.752866 -0.429948,-0.48507 -1.278821,-0.48507 z"
			id="text3"
			style="fill:var(--fgcolor);" />
		<rect
			style="fill:var(--fgcolor);"
			id="rect3"
			width="15.689189"
			height="1.277027"
			x="87.75"
			y="86.655403" />
	</g>
</svg>
