<?xml version="1.0" encoding="UTF-8"?>
<svg
  width="23.11758mm"
  height="21.331596mm"
  viewBox="0 0 23.11758 21.331596"
  version="1.1"
  id="svg1"
  xml:space="preserve"
  xmlns="http://www.w3.org/2000/svg"
  xmlns:svg="http://www.w3.org/2000/svg">
  
  <defs id="defs1" />
  <g id="layer1" transform="translate(-74.900858,-145.7048)">
    <g id="g61">
      <g id="g18" transform="translate(-16.808322,2.03867)">
        <path
          d="m 108.45203,162.14004 c -0.0992,0 -0.18387,0.002 -0.25424,0.005 -0.0704,0.003 -0.12727,0.009 -0.17046,0.0167 v 1.33397 c 0.18553,0.0432 0.36865,0.0648 0.54937,0.0648 0.28948,0 0.5103,-0.0648 0.66224,-0.19435 0.15194,-0.13114 0.22775,-0.29266 0.22775,-0.48458 0,-0.12635 -0.0343,-0.24777 -0.10308,-0.36452 -0.0688,-0.11675 -0.18088,-0.20895 -0.33601,-0.27612 -0.15514,-0.0672 -0.34687,-0.10078 -0.57557,-0.10078 z"
          style="fill:var(--fgcolor);"
          id="path18" />
        <path
          d="m 104.71817,161.14927 -0.56607,1.31469 h 1.11803 z"
          style="fill:var(--fgcolor);"
          id="path17" />
        <path
          d="m 101.51727,158.90545 v 6.09228 h 13.30949 v -6.09228 z m 10.67552,1.42352 c 0.23511,0 0.46694,0.0576 0.69564,0.17275 0.0672,0.0352 0.11518,0.0527 0.14397,0.0527 0.0432,0 0.0809,-0.0151 0.11286,-0.0455 0.0416,-0.0432 0.0711,-0.10319 0.0887,-0.17996 h 0.0841 l 0.0743,1.10594 h -0.0743 c -0.0992,-0.33106 -0.24077,-0.56939 -0.42469,-0.71493 -0.18393,-0.14554 -0.40475,-0.21825 -0.66224,-0.21825 -0.21591,0 -0.41103,0.0552 -0.58536,0.16556 -0.17432,0.10875 -0.31184,0.28298 -0.4126,0.52288 -0.0992,0.2399 -0.14857,0.53823 -0.14857,0.89488 0,0.29427 0.047,0.5494 0.14137,0.76531 0.0944,0.21591 0.23598,0.38124 0.4247,0.49639 0.19031,0.11515 0.40704,0.17276 0.65014,0.17276 0.21111,0 0.39734,-0.0446 0.55887,-0.13417 0.16153,-0.0912 0.33915,-0.27119 0.53266,-0.53987 l 0.0743,0.0481 c -0.16313,0.28948 -0.35345,0.5014 -0.57096,0.63575 -0.21751,0.13434 -0.47574,0.20126 -0.77482,0.20126 -0.53896,0 -0.95632,-0.19992 -1.2522,-0.59975 -0.2207,-0.29748 -0.33111,-0.64762 -0.33111,-1.05066 0,-0.32466 0.0727,-0.62299 0.21824,-0.89488 0.14554,-0.27188 0.34547,-0.48211 0.59976,-0.63085 0.25589,-0.15034 0.53503,-0.22545 0.83729,-0.22545 z m -7.38565,0.0743 h 0.0838 l 1.13242,2.70624 c 0.0912,0.2175 0.17348,0.35883 0.24705,0.4244 0.0752,0.064 0.17908,0.1 0.31182,0.10797 v 0.0887 h -1.28329 v -0.0887 c 0.12954,-0.006 0.21665,-0.028 0.26144,-0.0648 0.0464,-0.0368 0.0697,-0.0814 0.0697,-0.13417 0,-0.0704 -0.0322,-0.18149 -0.0962,-0.33342 l -0.19666,-0.46789 h -1.2594 l -0.22084,0.51338 c -0.0544,0.12634 -0.0815,0.22066 -0.0815,0.28303 0,0.0496 0.0233,0.0935 0.0697,0.13187 0.048,0.0368 0.1502,0.0608 0.30693,0.072 v 0.0887 h -1.02444 v -0.0887 c 0.13594,-0.024 0.22404,-0.0552 0.26403,-0.0936 0.0816,-0.0768 0.17178,-0.2325 0.27093,-0.4676 z m 2.28932,0.0743 h 1.40596 c 0.26228,0 0.47252,0.0192 0.63085,0.0576 0.2399,0.0576 0.42302,0.16008 0.54936,0.30721 0.12635,0.14554 0.18946,0.31356 0.18946,0.50388 0,0.16313 -0.0494,0.30926 -0.14857,0.4388 -0.0991,0.12795 -0.24557,0.22325 -0.43909,0.28563 0.2255,0.048 0.39423,0.12479 0.50618,0.23034 0.15513,0.14714 0.23264,0.32687 0.23264,0.53958 0,0.16153 -0.0511,0.31684 -0.15346,0.46558 -0.10236,0.14713 -0.24327,0.25515 -0.42239,0.32392 -0.17753,0.0672 -0.44917,0.10049 -0.81541,0.10049 h -1.53553 v -0.0887 h 0.12237 c 0.13594,0 0.23365,-0.0432 0.29283,-0.12956 0.0368,-0.056 0.055,-0.175 0.055,-0.35732 v -2.10159 c 0,-0.20152 -0.023,-0.32873 -0.0694,-0.38151 -0.0624,-0.0704 -0.15528,-0.10538 -0.27843,-0.10538 h -0.12237 z m 1.36277,0.16095 c 0.29747,0 0.5238,0.0672 0.67893,0.20155 0.15514,0.13434 0.23265,0.29657 0.23265,0.48689 0,0.12315 -0.0312,0.23666 -0.0936,0.34062 -0.0624,0.10396 -0.15287,0.18146 -0.27122,0.23265 -0.11675,0.0496 -0.29169,0.0746 -0.52519,0.0746 -0.0912,0 -0.17517,-0.002 -0.25193,-0.007 -0.0752,-0.006 -0.14238,-0.0153 -0.20156,-0.0265 v -1.24991 c 0.12795,-0.0352 0.27197,-0.0527 0.4319,-0.0527 z"
          style="fill:var(--fgcolor);"
          id="path16" />
      </g>
      <path
        d="m 83.643473,158.32987 1.734778,-3.00447 1.734778,3.00447 a 3.2837837,4.7432432 0 0 0 1.549259,-3.992 3.2837837,4.7432432 0 0 0 -3.284037,-4.74338 3.2837837,4.7432432 0 0 0 -3.28352,4.74338 3.2837837,4.7432432 0 0 0 1.548742,3.992 z"
        style="fill:var(--fgcolor);"
        id="path61" />
      <path
        d="m 83.643473,158.32987 a 3.2837837,4.7432432 0 0 0 1.734778,0.75138 3.2837837,4.7432432 0 0 0 1.734778,-0.75138 l -1.734778,-3.00447 z"
        style="fill:var(--fgcolor);"
        id="path60" />
      <path
        d="m 79.483004,165.53667 h 4.237467 v -5.31958 h 4.482414 l -1.089856,-1.88722 a 3.2837837,4.7432432 0 0 1 -1.734778,0.75138 3.2837837,4.7432432 0 0 1 -1.734778,-0.75138 z"
        style="fill:var(--fgcolor);"
        id="path59" />
      <path
        d="m 79.483004,165.53667 -0.201022,0.34778 h 4.438489 v -0.34778 z"
        style="fill:var(--fgcolor);"
        id="path58" />
      <path
        d="m 83.720471,166.63324 v -0.74879 h -4.438489 l 0.201022,-0.34778 h -3.550171 v 1.0759 h -0.992188 v 0.0207 z"
        style="fill:var(--fgcolor);"
        id="path57" />
      <path
        d="m 74.940645,166.61257 h 0.992188 v -1.0759 h -0.992188 z"
        style="fill:var(--fgcolor);"
        id="path56" />
      <path
        d="m 74.940645,166.61257 v -1.0759 h 0.992188 v -18.73581 h -0.984436 v -1.08624 h -0.04754 v 20.89795 z"
        style="fill:var(--fgcolor);"
        id="path55" />
      <path
        d="m 74.948397,145.71462 v 1.08624 h 0.984436 v -1.08624 z"
        style="fill:var(--fgcolor);"
        id="path54" />
      <path
        d="m 74.948397,145.7048 v 0.01 h 0.984436 v 1.08624 h 19.043282 v -1.08521 h 0.999422 v -0.0109 z"
        style="fill:var(--fgcolor);"
        id="path53" />
      <path
        d="m 95.975537,145.71565 h -0.999422 v 1.08521 h 0.999422 z"
        style="fill:var(--fgcolor);"
        id="path52" />
      <path
        d="m 95.975537,145.71565 v 1.08521 h -0.999422 v 13.41623 h 1.031978 v -14.50144 z"
        style="fill:var(--fgcolor);"
        id="path51" />
    </g>
  </g>
</svg>
