<?xml version="1.0" encoding="utf-8"?>
<!-- Svg Vector Icons : http://www.onlinewebfonts.com/icon -->
<!DOCTYPE svg PUBLIC "-//W3C//DTD SVG 1.1//EN" "http://www.w3.org/Graphics/SVG/1.1/DTD/svg11.dtd">
<svg version="1.1" xmlns="http://www.w3.org/2000/svg" xmlns:xlink="http://www.w3.org/1999/xlink" 
    x="0px" y="0px" viewBox="0 0 256 256" enable-background="new 0 0 256 256" xml:space="preserve">
    <metadata>Svg Vector Icons : http://www.onlinewebfonts.com/icon</metadata>
    <g>
        <g>
            <path style="fill:currentColor;" d="M175.2,57.9v-24c0-13.2-10.5-23.9-23.6-23.9h-118C20.5,10,10,20.7,10,33.9v143.4c0,13.2,10.5,23.9,23.6,23.9h30.5c-2.8-7.5-4.9-15.4-6-23.6c-14.4,0-24.5,0-24.5,0s0-144,0-144h118c0,0,0,9.8,0,24.3c3.9-0.4,7.8-0.7,11.8-0.7S171.3,57.4,175.2,57.9z"/>
            <path style="fill:currentColor;" d="M57.2,69c0-6.5,5.3-11.8,11.8-11.8h47.2c6.5,0,11.8,5.3,11.8,11.8c0,6.5-5.3,11.8-11.8,11.8H69C62.5,80.8,57.2,75.5,57.2,69z M57.2,104.4c0-6.5,5.3-11.8,11.8-11.8h11.8c6.5,0,11.8,5.3,11.8,11.8c0,6.5-5.3,11.8-11.8,11.8H69C62.5,116.2,57.2,110.9,57.2,104.4z"/>
            <path style="fill:currentColor;" d="M163.4,80.8c-45.6,0-82.6,37-82.6,82.6s37,82.6,82.6,82.6s82.6-37,82.6-82.6S209,80.8,163.4,80.8z M198.8,175.2h-35.4c-3.3,0-6.2-1.3-8.3-3.5c-2.1-2.1-3.4-5.1-3.4-8.3V128c0-6.5,5.3-11.8,11.8-11.8c6.5,0,11.8,5.3,11.8,11.8v23.6h23.6c6.5,0,11.8,5.3,11.8,11.8C210.6,169.9,205.3,175.2,198.8,175.2z"/>
        </g>
    </g>
</svg>