<?xml version="1.0" encoding="UTF-8" standalone="no"?>
<svg
   width="1000"
   height="1000"
   viewBox="0 0 264.58333 264.58334"
   version="1.1"
   id="svg363"
   sodipodi:docname="hslcircle.svg"
   inkscape:version="1.4 (86a8ad7, 2024-10-11)"
   xmlns:inkscape="http://www.inkscape.org/namespaces/inkscape"
   xmlns:sodipodi="http://sodipodi.sourceforge.net/DTD/sodipodi-0.dtd"
   xmlns:xlink="http://www.w3.org/1999/xlink"
   xmlns="http://www.w3.org/2000/svg"
   xmlns:svg="http://www.w3.org/2000/svg">
  <sodipodi:namedview
     id="namedview363"
     pagecolor="#ffffff"
     bordercolor="#999999"
     borderopacity="1"
     inkscape:showpageshadow="2"
     inkscape:pageopacity="0"
     inkscape:pagecheckerboard="0"
     inkscape:deskcolor="#d1d1d1"
     inkscape:zoom="0.808"
     inkscape:cx="499.38119"
     inkscape:cy="500"
     inkscape:window-width="1920"
     inkscape:window-height="1010"
     inkscape:window-x="-6"
     inkscape:window-y="-6"
     inkscape:window-maximized="1"
     inkscape:current-layer="svg363" />
  <defs
     id="defs2">
    <linearGradient
       id="a">
      <stop
         offset="0"
         stop-color="#ffffff"
         id="stop1"
         style="stop-color:#808080;stop-opacity:1;" />
      <stop
         offset="0.27813071"
         stop-color="#ffffff"
         id="stop365"
         style="stop-color:#808080;stop-opacity:1;" />
      <stop
         offset="0.52177864"
         stop-color="#ffffff"
         id="stop363"
         style="stop-color:#808080;stop-opacity:0.7714988;" />
      <stop
         offset="0.78085291"
         stop-color="#ffffff"
         id="stop364"
         style="stop-color:#808080;stop-opacity:0.38329241;" />
      <stop
         offset="1"
         stop-color="#ffffff"
         stop-opacity="0"
         id="stop2"
         style="stop-color:#808080;stop-opacity:0;" />
    </linearGradient>
    <radialGradient
       xlink:href="#a"
       id="b"
       cx="132.29167"
       cy="164.70831"
       fx="132.29167"
       fy="164.70831"
       r="132.29167"
       gradientUnits="userSpaceOnUse"
       gradientTransform="translate(-1.9130469e-6,-32.41665)" />
  </defs>
  <path
     d="m 131.13722,0.005029 a 132.29167,132.29167 0 0 1 2.53979,0.0022 l -1.38534,132.284411 z"
     fill="#ff0000"
     id="path2" />
  <path
     d="m 133.44612,0.005044 a 132.29167,132.29167 0 0 1 2.53935,0.04654 l -3.6938,132.240096 z"
     fill="#ff0400"
     id="path3" />
  <path
     d="m 135.75466,0.045339 a 132.29167,132.29167 0 0 1 2.53815,0.09085 l -6.00114,132.155491 z"
     fill="#ff0900"
     id="path4" />
  <path
     d="m 138.06215,0.125919 a 132.29167,132.29167 0 0 1 2.53618,0.135135 l -8.30666,132.030626 z"
     fill="#ff0d00"
     id="path5" />
  <path
     d="m 140.36788,0.246757 a 132.29167,132.29167 0 0 1 2.53344,0.179377 L 132.29167,132.29168 Z"
     fill="#ff1100"
     id="path6" />
  <path
     d="m 142.67116,0.407818 a 132.29167,132.29167 0 0 1 2.52991,0.223563 l -12.9094,131.660299 z"
     fill="#ff1500"
     id="path7" />
  <path
     d="m 144.97127,0.609051 a 132.29167,132.29167 0 0 1 2.52563,0.267683 L 132.29167,132.29168 Z"
     fill="#ff1a00"
     id="path8" />
  <path
     d="m 147.26752,0.850397 a 132.29167,132.29167 0 0 1 2.52057,0.31172 L 132.29167,132.29168 Z"
     fill="#ff1e00"
     id="path9" />
  <path
     d="m 149.5592,1.131781 a 132.29167,132.29167 0 0 1 2.51475,0.355663 L 132.29167,132.29168 Z"
     fill="#ff2200"
     id="path10" />
  <path
     d="m 151.84563,1.453117 a 132.29167,132.29167 0 0 1 2.50816,0.399497 L 132.29167,132.29168 Z"
     fill="#ff2600"
     id="path11" />
  <path
     d="m 154.1261,1.814308 a 132.29167,132.29167 0 0 1 2.50081,0.44321 L 132.29167,132.29168 Z"
     fill="#ff2b00"
     id="path12" />
  <path
     d="m 156.39992,2.215244 a 132.29167,132.29167 0 0 1 2.49269,0.486788 L 132.29167,132.29168 Z"
     fill="#ff2f00"
     id="path13" />
  <path
     d="m 158.66638,2.6558 a 132.29167,132.29167 0 0 1 2.48383,0.530219 L 132.29167,132.29168 Z"
     fill="#ff3300"
     id="path14" />
  <path
     d="m 160.92483,3.135846 a 132.29167,132.29167 0 0 1 2.47419,0.573488 L 132.29167,132.29168 Z"
     fill="#ff3700"
     id="path15" />
  <path
     d="m 163.17455,3.655235 a 132.29167,132.29167 0 0 1 2.4638,0.616581 L 132.29167,132.29168 Z"
     fill="#ff3c00"
     id="path16" />
  <path
     d="m 165.41486,4.213808 a 132.29167,132.29167 0 0 1 2.45266,0.659483 L 132.29167,132.29168 Z"
     fill="#ff4000"
     id="path17" />
  <path
     d="m 167.64508,4.811394 a 132.29167,132.29167 0 0 1 2.44078,0.702187 L 132.29167,132.29168 Z"
     fill="none"
     id="path18" />
  <path
     d="m 167.64508,4.811394 a 132.29167,132.29167 0 0 1 2.44078,0.702187 L 132.29167,132.29168 Z"
     fill="#ff4400"
     id="path19" />
  <path
     d="m 169.86454,5.447812 a 132.29167,132.29167 0 0 1 2.42815,0.744678 l -40.00102,126.09919 z"
     fill="#ff4800"
     id="path20" />
  <path
     d="m 172.07254,6.122868 a 132.29167,132.29167 0 0 1 2.41479,0.786942 l -42.19566,125.38187 z"
     fill="#ff4d00"
     id="path21" />
  <path
     d="m 174.26844,6.836357 a 132.29167,132.29167 0 0 1 2.40068,0.828965 L 132.29167,132.29168 Z"
     fill="#ff5100"
     id="path22" />
  <path
     d="m 176.45154,7.58806 a 132.29167,132.29167 0 0 1 2.38585,0.870737 L 132.29167,132.29168 Z"
     fill="#ff5500"
     id="path23" />
  <path
     d="m 178.62119,8.37775 a 132.29167,132.29167 0 0 1 2.37029,0.912243 L 132.29167,132.29168 Z"
     fill="#ff5900"
     id="path24" />
  <path
     d="m 180.77674,9.205184 a 132.29167,132.29167 0 0 1 2.354,0.953472 L 132.29167,132.29168 Z"
     fill="#ff5e00"
     id="path25" />
  <path
     d="m 182.91751,10.070112 a 132.29167,132.29167 0 0 1 2.33701,0.99441 L 132.29167,132.29168 Z"
     fill="#ff6200"
     id="path26" />
  <path
     d="m 185.04286,10.97227 a 132.29167,132.29167 0 0 1 2.3193,1.035045 L 132.29167,132.29168 Z"
     fill="#ff6600"
     id="path27" />
  <path
     d="m 187.15213,11.911378 a 132.29167,132.29167 0 0 1 2.30089,1.075369 L 132.29167,132.29168 Z"
     fill="#ff6a00"
     id="path28" />
  <path
     d="m 189.2447,12.88716 a 132.29167,132.29167 0 0 1 2.28177,1.115362 l -59.2348,118.289158 z"
     fill="#ff6f00"
     id="path29" />
  <path
     d="m 191.31992,13.899314 a 132.29167,132.29167 0 0 1 2.26196,1.155014 L 132.29167,132.29168 Z"
     fill="#ff7300"
     id="path30" />
  <path
     d="m 193.37716,14.947531 a 132.29167,132.29167 0 0 1 2.24145,1.194309 l -63.32694,116.14984 z"
     fill="#ff7700"
     id="path31" />
  <path
     d="m 195.4158,16.031492 a 132.29167,132.29167 0 0 1 2.22026,1.233246 L 132.29167,132.29168 Z"
     fill="#ff7b00"
     id="path32" />
  <path
     d="m 197.43521,17.150868 a 132.29167,132.29167 0 0 1 2.1984,1.271806 L 132.29167,132.29168 Z"
     fill="#ff8000"
     id="path33" />
  <path
     d="m 199.43477,18.305316 a 132.29167,132.29167 0 0 1 2.17587,1.309981 L 132.29167,132.29168 Z"
     fill="#ff8400"
     id="path34" />
  <path
     d="m 201.41388,19.494486 a 132.29167,132.29167 0 0 1 2.15268,1.347755 L 132.29167,132.29168 Z"
     fill="#ff8800"
     id="path35" />
  <path
     d="m 203.37194,20.718015 a 132.29167,132.29167 0 0 1 2.12882,1.385119 L 132.29167,132.29168 Z"
     fill="#ff8c00"
     id="path36" />
  <path
     d="m 205.30834,21.97553 a 132.29167,132.29167 0 0 1 2.10433,1.422062 l -75.121,108.894088 z"
     fill="#ff9100"
     id="path37" />
  <path
     d="m 207.2225,23.266649 a 132.29167,132.29167 0 0 1 2.07919,1.458571 l -77.01002,107.56646 z"
     fill="#ff9500"
     id="path38" />
  <path
     d="m 209.11384,24.590978 a 132.29167,132.29167 0 0 1 2.05342,1.494635 L 132.29167,132.29168 Z"
     fill="#ff9900"
     id="path39" />
  <path
     d="m 210.98178,25.948114 a 132.29167,132.29167 0 0 1 2.02702,1.530244 L 132.29167,132.29168 Z"
     fill="#ff9d00"
     id="path40" />
  <path
     d="m 212.82573,27.337635 a 132.29167,132.29167 0 0 1 2.00002,1.565396 L 132.29167,132.29168 Z"
     fill="#ffa200"
     id="path41" />
  <path
     d="m 214.64517,28.759133 a 132.29167,132.29167 0 0 1 1.97239,1.600063 L 132.29167,132.29168 Z"
     fill="#ffa600"
     id="path42" />
  <path
     d="m 216.43952,30.212169 a 132.29167,132.29167 0 0 1 1.94417,1.634242 L 132.29167,132.29168 Z"
     fill="#ffaa00"
     id="path43" />
  <path
     d="m 218.20824,31.696299 a 132.29167,132.29167 0 0 1 1.91534,1.667915 l -87.83191,98.927466 z"
     fill="#ffae00"
     id="path44" />
  <path
     d="m 219.95078,33.211072 a 132.29167,132.29167 0 0 1 1.88594,1.701088 l -89.54505,97.37952 z"
     fill="#ffb300"
     id="path45" />
  <path
     d="m 221.66663,34.756026 a 132.29167,132.29167 0 0 1 1.85596,1.733743 l -91.23092,95.801911 z"
     fill="#ffb700"
     id="path46" />
  <path
     d="m 223.35525,36.33069 a 132.29167,132.29167 0 0 1 1.82542,1.76587 l -92.889,94.19512 z"
     fill="#ffbb00"
     id="path47" />
  <path
     d="m 223.35525,36.33069 a 132.29167,132.29167 0 0 1 1.82542,1.76587 l -92.889,94.19512 z"
     fill="#ffbb00"
     id="path48" />
  <path
     d="m 225.01613,37.934584 a 132.29167,132.29167 0 0 1 1.79433,1.797459 l -94.51879,92.559637 z"
     fill="#ffbf00"
     id="path49" />
  <path
     d="m 226.64877,39.567221 a 132.29167,132.29167 0 0 1 1.76268,1.828501 l -96.11978,90.895958 z"
     fill="#ffc400"
     id="path50" />
  <path
     d="m 228.25266,41.228102 a 132.29167,132.29167 0 0 1 1.7305,1.858986 l -97.69149,89.204592 z"
     fill="#ffc800"
     id="path51" />
  <path
     d="m 229.82733,42.916723 a 132.29167,132.29167 0 0 1 1.69779,1.888903 l -99.23345,87.486054 z"
     fill="#ffcc00"
     id="path52" />
  <path
     d="m 231.37228,44.632568 a 132.29167,132.29167 0 0 1 1.66457,1.918246 L 132.29167,132.29168 Z"
     fill="#ffd000"
     id="path53" />
  <path
     d="m 232.88705,46.375114 a 132.29167,132.29167 0 0 1 1.63084,1.947005 L 132.29167,132.29168 Z"
     fill="#ffd500"
     id="path54" />
  <path
     d="m 234.37118,48.143832 a 132.29167,132.29167 0 0 1 1.59661,1.975171 L 132.29167,132.29168 Z"
     fill="#ffd900"
     id="path55" />
  <path
     d="m 235.82421,49.938172 a 132.29167,132.29167 0 0 1 1.5619,2.002745 L 132.29167,132.29168 Z"
     fill="#ffdd00"
     id="path56" />
  <path
     d="m 237.24571,51.757607 a 132.29167,132.29167 0 0 1 1.52671,2.029699 L 132.29167,132.29168 Z"
     fill="#ffe100"
     id="path57" />
  <path
     d="m 238.63524,53.601574 a 132.29167,132.29167 0 0 1 1.49105,2.056035 L 132.29167,132.29168 Z"
     fill="#ffe600"
     id="path58" />
  <path
     d="m 239.99237,55.469511 a 132.29167,132.29167 0 0 1 1.45494,2.081733 L 132.29167,132.29168 Z"
     fill="#ffea00"
     id="path59" />
  <path
     d="m 241.3167,57.360849 a 132.29167,132.29167 0 0 1 1.41839,2.106808 L 132.29167,132.29168 Z"
     fill="#ffee00"
     id="path60" />
  <path
     d="m 242.60782,59.275011 a 132.29167,132.29167 0 0 1 1.3814,2.131241 L 132.29167,132.29168 Z"
     fill="#fff200"
     id="path61" />
  <path
     d="m 243.86534,61.211415 a 132.29167,132.29167 0 0 1 1.34399,2.155026 L 132.29167,132.29168 Z"
     fill="#fff700"
     id="path62" />
  <path
     d="m 245.08886,63.16947 a 132.29167,132.29167 0 0 1 1.30619,2.178154 L 132.29167,132.29168 Z"
     fill="#fffb00"
     id="path63" />
  <path
     d="m 246.27803,65.148581 a 132.29167,132.29167 0 0 1 1.26797,2.200618 L 132.29167,132.29168 Z"
     fill="#ffff00"
     id="path64" />
  <path
     d="m 247.43248,67.148145 a 132.29167,132.29167 0 0 1 1.22937,2.222415 l -116.37018,62.92112 z"
     fill="#fbff00"
     id="path65" />
  <path
     d="m 248.55186,69.16755 a 132.29167,132.29167 0 0 1 1.19039,2.24353 l -117.45058,60.8806 z"
     fill="#f7ff00"
     id="path66" />
  <path
     d="m 249.63582,71.20619 a 132.29167,132.29167 0 0 1 1.15106,2.26396 l -118.49521,58.82153 z"
     fill="#f2ff00"
     id="path67" />
  <path
     d="m 250.68404,73.26343 a 132.29167,132.29167 0 0 1 1.11137,2.28371 l -119.50374,56.74454 z"
     fill="#eeff00"
     id="path68" />
  <path
     d="m 251.69619,75.33864 a 132.29167,132.29167 0 0 1 1.07135,2.30277 l -120.47587,54.65027 z"
     fill="#eaff00"
     id="path69" />
  <path
     d="m 252.67197,77.43121 a 132.29167,132.29167 0 0 1 1.031,2.32111 l -121.4113,52.53936 z"
     fill="#e6ff00"
     id="path70" />
  <path
     d="m 253.61108,79.54049 a 132.29167,132.29167 0 0 1 0.99033,2.33876 l -122.30974,50.41243 z"
     fill="#e1ff00"
     id="path71" />
  <path
     d="m 254.51324,81.66584 a 132.29167,132.29167 0 0 1 0.94936,2.35567 l -123.17093,48.27017 z"
     fill="#ddff00"
     id="path72" />
  <path
     d="m 255.37817,83.80662 a 132.29167,132.29167 0 0 1 0.9081,2.37187 l -123.9946,46.11319 z"
     fill="#d9ff00"
     id="path73" />
  <path
     d="m 256.2056,85.96216 a 132.29167,132.29167 0 0 1 0.86657,2.38736 l -124.7805,43.94216 z"
     fill="#d5ff00"
     id="path74" />
  <path
     d="m 256.99529,88.13181 a 132.29167,132.29167 0 0 1 0.82477,2.40213 l -125.52839,41.75774 z"
     fill="#d0ff00"
     id="path75" />
  <path
     d="m 257.74699,90.31492 a 132.29167,132.29167 0 0 1 0.78273,2.41615 l -126.23805,39.56061 z"
     fill="#ccff00"
     id="path76" />
  <path
     d="m 258.46048,92.51081 a 132.29167,132.29167 0 0 1 0.74044,2.42944 l -126.90925,37.35143 z"
     fill="#c8ff00"
     id="path77" />
  <path
     d="m 259.13554,94.71882 a 132.29167,132.29167 0 0 1 0.69792,2.442 l -127.54179,35.13086 z"
     fill="#c4ff00"
     id="path78" />
  <path
     d="m 259.77196,96.93827 a 132.29167,132.29167 0 0 1 0.6552,2.45381 l -128.13549,32.8996 z"
     fill="#bfff00"
     id="path79" />
  <path
     d="m 260.36954,99.16849 a 132.29167,132.29167 0 0 1 0.61228,2.46487 l -128.69015,30.65832 z"
     fill="#bbff00"
     id="path80" />
  <path
     d="m 260.92812,101.40881 a 132.29167,132.29167 0 0 1 0.56916,2.47518 l -129.20561,28.40769 z"
     fill="#b7ff00"
     id="path81" />
  <path
     d="m 261.4475,103.65853 a 132.29167,132.29167 0 0 1 0.52588,2.48473 l -129.68171,26.14842 z"
     fill="#b3ff00"
     id="path82" />
  <path
     d="m 261.92755,105.91696 a 132.29167,132.29167 0 0 1 0.48244,2.49354 l -130.11832,23.88118 z"
     fill="#aeff00"
     id="path83" />
  <path
     d="m 262.36811,108.18343 a 132.29167,132.29167 0 0 1 0.43884,2.50159 l -130.51528,21.60666 z"
     fill="#aaff00"
     id="path84" />
  <path
     d="m 262.76904,110.45725 a 132.29167,132.29167 0 0 1 0.39512,2.50887 l -130.87249,19.32556 z"
     fill="#a6ff00"
     id="path85" />
  <path
     d="m 263.13023,112.73772 a 132.29167,132.29167 0 0 1 0.35128,2.51537 l -131.18984,17.03859 z"
     fill="#a2ff00"
     id="path86" />
  <path
     d="m 263.45157,115.02415 a 132.29167,132.29167 0 0 1 0.30732,2.52111 l -131.46722,14.74642 z"
     fill="#9eff00"
     id="path87" />
  <path
     d="m 263.73295,117.31584 a 132.29167,132.29167 0 0 1 0.26328,2.52609 l -131.70456,12.44975 z"
     fill="#99ff00"
     id="path88" />
  <path
     d="m 263.9743,119.61208 a 132.29167,132.29167 0 0 1 0.21915,2.53031 l -131.90178,10.14929 z"
     fill="#95ff00"
     id="path89" />
  <path
     d="m 264.17553,121.91219 a 132.29167,132.29167 0 0 1 0.17496,2.53375 l -132.05882,7.84574 z"
     fill="#91ff00"
     id="path90" />
  <path
     d="m 264.33659,124.21547 a 132.29167,132.29167 0 0 1 0.13071,2.53641 l -132.17563,5.5398 z"
     fill="#8cff00"
     id="path91" />
  <path
     d="m 264.45743,126.5212 a 132.29167,132.29167 0 0 1 0.0864,2.5383 l -132.25218,3.23218 z"
     fill="#88ff00"
     id="path92" />
  <path
     d="m 264.53801,128.82869 a 132.29167,132.29167 0 0 1 0.0421,2.53943 l -132.28845,0.92356 z"
     fill="#84ff00"
     id="path93" />
  <path
     d="m 264.57831,131.13724 a 132.29167,132.29167 0 0 1 -0.002,2.53977 l -132.28442,-1.38533 z"
     fill="#80ff00"
     id="path94" />
  <path
     d="m 264.57831,133.44613 a 132.29167,132.29167 0 0 1 -0.0465,2.53935 l -132.24009,-3.6938 z"
     fill="#7bff00"
     id="path95" />
  <path
     d="m 264.53801,135.75467 a 132.29167,132.29167 0 0 1 -0.0908,2.53815 l -132.15549,-6.00114 z"
     fill="#77ff00"
     id="path96" />
  <path
     d="m 264.45743,138.06216 a 132.29167,132.29167 0 0 1 -0.13513,2.53618 l -132.03063,-8.30666 z"
     fill="#73ff00"
     id="path97" />
  <path
     d="m 264.33659,140.36789 a 132.29167,132.29167 0 0 1 -0.17937,2.53344 L 132.29167,132.29168 Z"
     fill="#6fff00"
     id="path98" />
  <path
     d="m 264.17553,142.67116 a 132.29167,132.29167 0 0 1 -0.22356,2.52992 l -131.6603,-12.9094 z"
     fill="#6aff00"
     id="path99" />
  <path
     d="m 263.9743,144.97127 a 132.29167,132.29167 0 0 1 -0.26768,2.52564 L 132.29167,132.29168 Z"
     fill="#66ff00"
     id="path100" />
  <path
     d="m 263.73295,147.26752 a 132.29167,132.29167 0 0 1 -0.31172,2.52058 L 132.29167,132.29168 Z"
     fill="#62ff00"
     id="path101" />
  <path
     d="m 263.45157,149.55921 a 132.29167,132.29167 0 0 1 -0.35566,2.51475 L 132.29167,132.29168 Z"
     fill="#5eff00"
     id="path102" />
  <path
     d="m 263.13023,151.84563 a 132.29167,132.29167 0 0 1 -0.39949,2.50816 L 132.29167,132.29168 Z"
     fill="#59ff00"
     id="path103" />
  <path
     d="m 262.76904,154.1261 a 132.29167,132.29167 0 0 1 -0.44321,2.50081 L 132.29167,132.29168 Z"
     fill="#55ff00"
     id="path104" />
  <path
     d="m 262.36811,156.39992 a 132.29167,132.29167 0 0 1 -0.48679,2.49269 L 132.29167,132.29168 Z"
     fill="#51ff00"
     id="path105" />
  <path
     d="m 261.92755,158.6664 a 132.29167,132.29167 0 0 1 -0.53022,2.48381 L 132.29167,132.29168 Z"
     fill="#4dff00"
     id="path106" />
  <path
     d="m 261.4475,160.92484 a 132.29167,132.29167 0 0 1 -0.57348,2.47418 L 132.29167,132.29168 Z"
     fill="#48ff00"
     id="path107" />
  <path
     d="m 260.92811,163.17456 a 132.29167,132.29167 0 0 1 -0.61657,2.46379 L 132.29167,132.29168 Z"
     fill="#44ff00"
     id="path108" />
  <path
     d="m 260.36954,165.41487 a 132.29167,132.29167 0 0 1 -0.65948,2.45266 L 132.29167,132.29168 Z"
     fill="#40ff00"
     id="path109" />
  <path
     d="m 259.77196,167.64509 a 132.29167,132.29167 0 0 1 -0.70219,2.44078 l -126.7781,-37.79419 z"
     fill="#3cff00"
     id="path110" />
  <path
     d="m 259.13554,169.86454 a 132.29167,132.29167 0 0 1 -0.74468,2.42816 L 132.29167,132.29168 Z"
     fill="#37ff00"
     id="path111" />
  <path
     d="m 258.46048,172.07255 a 132.29167,132.29167 0 0 1 -0.78694,2.41479 L 132.29167,132.29168 Z"
     fill="#33ff00"
     id="path112" />
  <path
     d="m 257.74699,174.26844 a 132.29167,132.29167 0 0 1 -0.82896,2.40069 L 132.29167,132.29168 Z"
     fill="#2fff00"
     id="path113" />
  <path
     d="m 256.99529,176.45155 a 132.29167,132.29167 0 0 1 -0.87074,2.38585 L 132.29167,132.29168 Z"
     fill="#2bff00"
     id="path114" />
  <path
     d="m 256.2056,178.6212 a 132.29167,132.29167 0 0 1 -0.91224,2.37029 L 132.29167,132.29168 Z"
     fill="#26ff00"
     id="path115" />
  <path
     d="m 255.37817,180.77674 a 132.29167,132.29167 0 0 1 -0.95348,2.35401 L 132.29167,132.29168 Z"
     fill="#22ff00"
     id="path116" />
  <path
     d="m 254.51324,182.91751 a 132.29167,132.29167 0 0 1 -0.99441,2.33701 L 132.29167,132.29168 Z"
     fill="#1eff00"
     id="path117" />
  <path
     d="m 253.61108,185.04286 a 132.29167,132.29167 0 0 1 -1.03504,2.3193 L 132.29167,132.29168 Z"
     fill="#1aff00"
     id="path118" />
  <path
     d="m 252.67197,187.15214 a 132.29167,132.29167 0 0 1 -1.07537,2.30088 L 132.29167,132.29168 Z"
     fill="#15ff00"
     id="path119" />
  <path
     d="m 251.69619,189.24471 a 132.29167,132.29167 0 0 1 -1.11536,2.28177 l -118.28916,-59.2348 z"
     fill="#11ff00"
     id="path120" />
  <path
     d="m 250.68403,191.31993 a 132.29167,132.29167 0 0 1 -1.15501,2.26195 l -117.23735,-61.2902 z"
     fill="#0dff00"
     id="path121" />
  <path
     d="m 249.63582,193.37717 a 132.29167,132.29167 0 0 1 -1.19431,2.24145 L 132.29167,132.29168 Z"
     fill="#09ff00"
     id="path122" />
  <path
     d="m 248.55186,195.41581 a 132.29167,132.29167 0 0 1 -1.23325,2.22026 L 132.29167,132.29168 Z"
     fill="#04ff00"
     id="path123" />
  <path
     d="m 247.43248,197.43521 a 132.29167,132.29167 0 0 1 -1.27181,2.19841 l -113.869,-67.34194 z"
     fill="#00ff00"
     id="path124" />
  <path
     d="m 246.27803,199.43478 a 132.29167,132.29167 0 0 1 -1.30998,2.17587 L 132.29167,132.29168 Z"
     fill="#00ff04"
     id="path125" />
  <path
     d="m 245.08886,201.41389 a 132.29167,132.29167 0 0 1 -1.34775,2.15268 L 132.29167,132.29168 Z"
     fill="#00ff09"
     id="path126" />
  <path
     d="m 243.86534,203.37194 a 132.29167,132.29167 0 0 1 -1.38512,2.12883 L 132.29167,132.29168 Z"
     fill="#00ff0d"
     id="path127" />
  <path
     d="m 242.60782,205.30834 a 132.29167,132.29167 0 0 1 -1.42206,2.10434 l -108.89409,-75.121 z"
     fill="#00ff11"
     id="path128" />
  <path
     d="m 241.3167,207.22251 a 132.29167,132.29167 0 0 1 -1.45857,2.07919 L 132.29167,132.29168 Z"
     fill="#00ff15"
     id="path129" />
  <path
     d="m 239.99238,209.11384 a 132.29167,132.29167 0 0 1 -1.49464,2.05342 L 132.29167,132.29168 Z"
     fill="#00ff1a"
     id="path130" />
  <path
     d="m 238.63524,210.98178 a 132.29167,132.29167 0 0 1 -1.53025,2.02702 L 132.29167,132.29168 Z"
     fill="#00ff1e"
     id="path131" />
  <path
     d="m 237.24571,212.82575 a 132.29167,132.29167 0 0 1 -1.56539,2 L 132.29167,132.29168 Z"
     fill="#00ff22"
     id="path132" />
  <path
     d="m 235.82421,214.64518 a 132.29167,132.29167 0 0 1 -1.60005,1.97238 L 132.29167,132.29168 Z"
     fill="#00ff26"
     id="path133" />
  <path
     d="m 234.37118,216.43953 a 132.29167,132.29167 0 0 1 -1.63424,1.94416 L 132.29167,132.29168 Z"
     fill="#00ff2b"
     id="path134" />
  <path
     d="m 232.88705,218.20825 a 132.29167,132.29167 0 0 1 -1.66792,1.91534 l -98.92746,-87.83191 z"
     fill="#00ff2f"
     id="path135" />
  <path
     d="m 231.37228,219.95079 a 132.29167,132.29167 0 0 1 -1.70109,1.88594 l -97.37952,-89.54505 z"
     fill="#00ff33"
     id="path136" />
  <path
     d="m 229.82732,221.66664 a 132.29167,132.29167 0 0 1 -1.73374,1.85596 l -95.80191,-91.23092 z"
     fill="#00ff37"
     id="path137" />
  <path
     d="m 228.25266,223.35526 a 132.29167,132.29167 0 0 1 -1.76587,1.82542 l -94.19512,-92.889 z"
     fill="#00ff3c"
     id="path138" />
  <path
     d="m 226.64877,225.01614 a 132.29167,132.29167 0 0 1 -1.79747,1.79432 l -92.55963,-94.51878 z"
     fill="#00ff40"
     id="path139" />
  <path
     d="m 225.01613,226.64877 a 132.29167,132.29167 0 0 1 -1.8285,1.76269 l -90.89596,-96.11978 z"
     fill="#00ff44"
     id="path140" />
  <path
     d="m 223.35525,228.25267 a 132.29167,132.29167 0 0 1 -1.85899,1.7305 l -89.20459,-97.69149 z"
     fill="#00ff48"
     id="path141" />
  <path
     d="m 221.66663,229.82733 a 132.29167,132.29167 0 0 1 -1.88891,1.6978 l -87.48605,-99.23345 z"
     fill="#00ff4d"
     id="path142" />
  <path
     d="m 219.95079,231.37228 a 132.29167,132.29167 0 0 1 -1.91825,1.66457 L 132.29167,132.29168 Z"
     fill="#00ff51"
     id="path143" />
  <path
     d="m 218.20824,232.88705 a 132.29167,132.29167 0 0 1 -1.94701,1.63084 L 132.29167,132.29168 Z"
     fill="#00ff55"
     id="path144" />
  <path
     d="m 216.43952,234.37118 a 132.29167,132.29167 0 0 1 -1.97517,1.59662 L 132.29167,132.29168 Z"
     fill="#00ff59"
     id="path145" />
  <path
     d="m 214.64517,235.82422 a 132.29167,132.29167 0 0 1 -2.00273,1.5619 L 132.29167,132.29168 Z"
     fill="#00ff5e"
     id="path146" />
  <path
     d="m 212.82574,237.24572 a 132.29167,132.29167 0 0 1 -2.02969,1.5267 L 132.29167,132.29168 Z"
     fill="#00ff62"
     id="path147" />
  <path
     d="m 210.98177,238.63525 a 132.29167,132.29167 0 0 1 -2.05602,1.49105 L 132.29167,132.29168 Z"
     fill="#00ff66"
     id="path148" />
  <path
     d="m 209.11384,239.99238 a 132.29167,132.29167 0 0 1 -2.08174,1.45494 L 132.29167,132.29168 Z"
     fill="#00ff6a"
     id="path149" />
  <path
     d="m 207.2225,241.31671 a 132.29167,132.29167 0 0 1 -2.10681,1.41839 L 132.29167,132.29168 Z"
     fill="#00ff6f"
     id="path150" />
  <path
     d="m 205.30834,242.60783 a 132.29167,132.29167 0 0 1 -2.13124,1.3814 L 132.29167,132.29168 Z"
     fill="#00ff73"
     id="path151" />
  <path
     d="m 203.37194,243.86534 a 132.29167,132.29167 0 0 1 -2.15503,1.344 L 132.29167,132.29168 Z"
     fill="#00ff77"
     id="path152" />
  <path
     d="m 201.41388,245.08887 a 132.29167,132.29167 0 0 1 -2.17815,1.30618 L 132.29167,132.29168 Z"
     fill="#00ff7b"
     id="path153" />
  <path
     d="m 199.43477,246.27804 a 132.29167,132.29167 0 0 1 -2.20062,1.26797 L 132.29167,132.29168 Z"
     fill="#00ff80"
     id="path154" />
  <path
     d="m 197.43521,247.43249 a 132.29167,132.29167 0 0 1 -2.22241,1.22937 L 132.29167,132.29168 Z"
     fill="#00ff84"
     id="path155" />
  <path
     d="m 195.4158,248.55186 a 132.29167,132.29167 0 0 1 -2.24353,1.1904 l -60.8806,-117.45058 z"
     fill="#00ff88"
     id="path156" />
  <path
     d="m 193.37717,249.63583 a 132.29167,132.29167 0 0 1 -2.26397,1.15105 l -58.82153,-118.4952 z"
     fill="#00ff8c"
     id="path157" />
  <path
     d="m 191.31992,250.68404 a 132.29167,132.29167 0 0 1 -2.2837,1.11137 L 132.29167,132.29168 Z"
     fill="#00ff91"
     id="path158" />
  <path
     d="m 189.2447,251.6962 a 132.29167,132.29167 0 0 1 -2.30275,1.07134 L 132.29167,132.29168 Z"
     fill="#00ff95"
     id="path159" />
  <path
     d="m 187.15213,252.67198 a 132.29167,132.29167 0 0 1 -2.3211,1.03099 L 132.29167,132.29168 Z"
     fill="#00ff99"
     id="path160" />
  <path
     d="m 185.04285,253.61109 a 132.29167,132.29167 0 0 1 -2.33874,0.99033 L 132.29167,132.29168 Z"
     fill="#00ff9d"
     id="path161" />
  <path
     d="m 182.91751,254.51324 a 132.29167,132.29167 0 0 1 -2.35568,0.94937 L 132.29167,132.29168 Z"
     fill="#00ffa2"
     id="path162" />
  <path
     d="m 180.77674,255.37817 a 132.29167,132.29167 0 0 1 -2.37189,0.90811 l -46.11318,-123.9946 z"
     fill="#00ffa6"
     id="path163" />
  <path
     d="m 178.6212,256.20561 a 132.29167,132.29167 0 0 1 -2.38738,0.86657 l -43.94215,-124.7805 z"
     fill="#00ffaa"
     id="path164" />
  <path
     d="m 176.45154,256.9953 a 132.29167,132.29167 0 0 1 -2.40212,0.82477 L 132.29167,132.29168 Z"
     fill="#00ffae"
     id="path165" />
  <path
     d="m 174.26844,257.747 a 132.29167,132.29167 0 0 1 -2.41616,0.78273 L 132.29167,132.29168 Z"
     fill="#00ffb3"
     id="path166" />
  <path
     d="m 172.07255,258.46049 a 132.29167,132.29167 0 0 1 -2.42945,0.74044 L 132.29167,132.29168 Z"
     fill="#00ffb7"
     id="path167" />
  <path
     d="m 169.86454,259.13554 a 132.29167,132.29167 0 0 1 -2.442,0.69793 L 132.29167,132.29168 Z"
     fill="#00ffbb"
     id="path168" />
  <path
     d="m 167.64508,259.77196 a 132.29167,132.29167 0 0 1 -2.45381,0.6552 l -32.8996,-128.13548 z"
     fill="#00ffbf"
     id="path169" />
  <path
     d="m 165.41486,260.36955 a 132.29167,132.29167 0 0 1 -2.46487,0.61228 L 132.29167,132.29168 Z"
     fill="#00ffc4"
     id="path170" />
  <path
     d="m 163.17455,260.92812 a 132.29167,132.29167 0 0 1 -2.47518,0.56917 l -28.4077,-129.20561 z"
     fill="#00ffc8"
     id="path171" />
  <path
     d="m 160.92483,261.44751 a 132.29167,132.29167 0 0 1 -2.48474,0.52588 L 132.29167,132.29168 Z"
     fill="#00ffcc"
     id="path172" />
  <path
     d="m 158.66638,261.92756 a 132.29167,132.29167 0 0 1 -2.49353,0.48243 L 132.29167,132.29168 Z"
     fill="#00ffd0"
     id="path173" />
  <path
     d="m 156.39991,262.36811 a 132.29167,132.29167 0 0 1 -2.50158,0.43885 L 132.29167,132.29168 Z"
     fill="#00ffd5"
     id="path174" />
  <path
     d="m 154.1261,262.76905 a 132.29167,132.29167 0 0 1 -2.50886,0.39512 L 132.29167,132.29168 Z"
     fill="#00ffd9"
     id="path175" />
  <path
     d="m 151.84563,263.13024 a 132.29167,132.29167 0 0 1 -2.51538,0.35127 L 132.29167,132.29168 Z"
     fill="#00ffdd"
     id="path176" />
  <path
     d="m 149.5592,263.45158 a 132.29167,132.29167 0 0 1 -2.52112,0.30732 L 132.29167,132.29168 Z"
     fill="#00ffe1"
     id="path177" />
  <path
     d="m 147.26752,263.73296 a 132.29167,132.29167 0 0 1 -2.5261,0.26327 L 132.29167,132.29168 Z"
     fill="#00ffe6"
     id="path178" />
  <path
     d="m 144.97127,263.97431 a 132.29167,132.29167 0 0 1 -2.5303,0.21914 l -10.1493,-131.90177 z"
     fill="#00ffea"
     id="path179" />
  <path
     d="m 142.67116,264.17554 a 132.29167,132.29167 0 0 1 -2.53374,0.17495 l -7.84575,-132.05881 z"
     fill="#00ffee"
     id="path180" />
  <path
     d="m 140.36789,264.3366 a 132.29167,132.29167 0 0 1 -2.53641,0.13071 l -5.53981,-132.17563 z"
     fill="#00fff2"
     id="path181" />
  <path
     d="m 138.06215,264.45744 a 132.29167,132.29167 0 0 1 -2.5383,0.0864 l -3.23218,-132.25218 z"
     fill="#00fff7"
     id="path182" />
  <path
     d="m 135.75466,264.53802 a 132.29167,132.29167 0 0 1 -2.53942,0.0421 l -0.92357,-132.28845 z"
     fill="#00fffb"
     id="path183" />
  <path
     d="m 133.44612,264.57831 a 132.29167,132.29167 0 0 1 -2.53978,-0.002 l 1.38533,-132.28442 z"
     fill="#00ffff"
     id="path184" />
  <path
     d="m 131.13722,264.57831 a 132.29167,132.29167 0 0 1 -2.53935,-0.0465 l 3.6938,-132.24009 z"
     fill="#00fbff"
     id="path185" />
  <path
     d="m 128.82867,264.53802 a 132.29167,132.29167 0 0 1 -2.53815,-0.0909 l 6.00115,-132.15548 z"
     fill="#00f7ff"
     id="path186" />
  <path
     d="m 126.52118,264.45744 a 132.29167,132.29167 0 0 1 -2.53617,-0.13514 l 8.30666,-132.03062 z"
     fill="#00f2ff"
     id="path187" />
  <path
     d="m 124.21545,264.3366 a 132.29167,132.29167 0 0 1 -2.53343,-0.17938 l 10.60965,-131.86554 z"
     fill="#00eeff"
     id="path188" />
  <path
     d="m 121.91219,264.17554 a 132.29167,132.29167 0 0 1 -2.52993,-0.22357 l 12.90941,-131.66029 z"
     fill="#00eaff"
     id="path189" />
  <path
     d="m 119.61208,263.97431 a 132.29167,132.29167 0 0 1 -2.52564,-0.26769 l 15.20523,-131.41494 z"
     fill="#00e6ff"
     id="path190" />
  <path
     d="m 117.31583,263.73296 a 132.29167,132.29167 0 0 1 -2.52057,-0.31172 l 17.49641,-131.12956 z"
     fill="#00e1ff"
     id="path191" />
  <path
     d="m 115.02415,263.45158 a 132.29167,132.29167 0 0 1 -2.51475,-0.35567 l 19.78227,-130.80423 z"
     fill="#00ddff"
     id="path192" />
  <path
     d="m 112.73772,263.13024 a 132.29167,132.29167 0 0 1 -2.50816,-0.3995 l 22.06211,-130.43906 z"
     fill="#00d9ff"
     id="path193" />
  <path
     d="m 110.45725,262.76905 a 132.29167,132.29167 0 0 1 -2.50081,-0.44321 l 24.33523,-130.03416 z"
     fill="#00d5ff"
     id="path194" />
  <path
     d="m 108.18343,262.36811 a 132.29167,132.29167 0 0 1 -2.49269,-0.48678 l 26.60093,-129.58965 z"
     fill="#00d0ff"
     id="path195" />
  <path
     d="m 105.91695,261.92756 a 132.29167,132.29167 0 0 1 -2.48381,-0.53022 l 28.85853,-129.10566 z"
     fill="#00ccff"
     id="path196" />
  <path
     d="m 103.65851,261.44751 a 132.29167,132.29167 0 0 1 -2.47418,-0.57349 l 31.10734,-128.58234 z"
     fill="#00c8ff"
     id="path197" />
  <path
     d="m 101.40879,260.92812 a 132.29167,132.29167 0 0 1 -2.463795,-0.61658 L 132.29167,132.29168 Z"
     fill="#00c4ff"
     id="path198" />
  <path
     d="m 99.168478,260.36955 a 132.29167,132.29167 0 0 1 -2.45266,-0.65949 L 132.29167,132.29168 Z"
     fill="#00bfff"
     id="path199" />
  <path
     d="m 96.938255,259.77196 a 132.29167,132.29167 0 0 1 -2.440777,-0.70219 L 132.29167,132.29168 Z"
     fill="#00bbff"
     id="path200" />
  <path
     d="M 94.718801,259.13554 A 132.29167,132.29167 0 0 1 92.29065,258.39086 L 132.29167,132.29168 Z"
     fill="#00b7ff"
     id="path201" />
  <path
     d="m 92.510805,258.46049 a 132.29167,132.29167 0 0 1 -2.414798,-0.78695 L 132.29167,132.29168 Z"
     fill="#00b3ff"
     id="path202" />
  <path
     d="m 90.314913,257.747 a 132.29167,132.29167 0 0 1 -2.400695,-0.82897 L 132.29167,132.29168 Z"
     fill="#00aeff"
     id="path203" />
  <path
     d="m 88.131808,256.9953 a 132.29167,132.29167 0 0 1 -2.385862,-0.87074 L 132.29167,132.29168 Z"
     fill="#00aaff"
     id="path204" />
  <path
     d="m 85.962155,256.20561 a 132.29167,132.29167 0 0 1 -2.37029,-0.91224 L 132.29167,132.29168 Z"
     fill="#00a6ff"
     id="path205" />
  <path
     d="M 83.806614,255.37817 A 132.29167,132.29167 0 0 1 81.452606,254.4247 L 132.29167,132.29168 Z"
     fill="#00a2ff"
     id="path206" />
  <path
     d="m 81.665842,254.51325 a 132.29167,132.29167 0 0 1 -2.337009,-0.99441 L 132.29167,132.29168 Z"
     fill="#009dff"
     id="path207" />
  <path
     d="m 79.540491,253.61109 a 132.29167,132.29167 0 0 1 -2.319298,-1.03505 L 132.29167,132.29168 Z"
     fill="#0099ff"
     id="path208" />
  <path
     d="m 77.431209,252.67198 a 132.29167,132.29167 0 0 1 -2.300881,-1.07537 L 132.29167,132.29168 Z"
     fill="#0095ff"
     id="path209" />
  <path
     d="m 75.338637,251.69619 a 132.29167,132.29167 0 0 1 -2.281763,-1.11535 L 132.29167,132.29168 Z"
     fill="#0091ff"
     id="path210" />
  <path
     d="m 73.263415,250.68404 a 132.29167,132.29167 0 0 1 -2.26195,-1.15501 L 132.29167,132.29168 Z"
     fill="#008cff"
     id="path211" />
  <path
     d="m 71.206172,249.63582 a 132.29167,132.29167 0 0 1 -2.241447,-1.19431 L 132.29167,132.29168 Z"
     fill="#0088ff"
     id="path212" />
  <path
     d="m 69.167537,248.55186 a 132.29167,132.29167 0 0 1 -2.220262,-1.23324 L 132.29167,132.29168 Z"
     fill="#0084ff"
     id="path213" />
  <path
     d="m 67.148131,247.43249 a 132.29167,132.29167 0 0 1 -2.198402,-1.27181 l 67.341941,-113.869 z"
     fill="#0080ff"
     id="path214" />
  <path
     d="m 65.148579,246.27804 a 132.29167,132.29167 0 0 1 -2.175882,-1.30998 L 132.29167,132.29168 Z"
     fill="#007bff"
     id="path215" />
  <path
     d="M 63.169468,245.08887 A 132.29167,132.29167 0 0 1 61.01678,243.74111 L 132.29167,132.29168 Z"
     fill="#0077ff"
     id="path216" />
  <path
     d="m 61.211412,243.86534 a 132.29167,132.29167 0 0 1 -2.128838,-1.38512 L 132.29167,132.29168 Z"
     fill="#0072ff"
     id="path217" />
  <path
     d="m 59.275008,242.60783 a 132.29167,132.29167 0 0 1 -2.104329,-1.42206 L 132.29167,132.29168 Z"
     fill="#006fff"
     id="path218" />
  <path
     d="m 57.360846,241.31671 a 132.29167,132.29167 0 0 1 -2.079191,-1.45857 L 132.29167,132.29168 Z"
     fill="#006aff"
     id="path219" />
  <path
     d="M 55.469508,239.99238 A 132.29167,132.29167 0 0 1 53.41609,238.49775 L 132.29167,132.29168 Z"
     fill="#0066ff"
     id="path220" />
  <path
     d="M 53.601571,238.63525 A 132.29167,132.29167 0 0 1 51.574551,237.105 L 132.29167,132.29168 Z"
     fill="#0062ff"
     id="path221" />
  <path
     d="m 51.757604,237.24572 a 132.29167,132.29167 0 0 1 -2.000005,-1.56539 L 132.29167,132.29168 Z"
     fill="#005eff"
     id="path222" />
  <path
     d="m 49.938169,235.82422 a 132.29167,132.29167 0 0 1 -1.972381,-1.60006 L 132.29167,132.29168 Z"
     fill="#0059ff"
     id="path223" />
  <path
     d="m 48.143819,234.37118 a 132.29167,132.29167 0 0 1 -1.944156,-1.63423 L 132.29167,132.29168 Z"
     fill="#0055ff"
     id="path224" />
  <path
     d="m 46.375101,232.88705 a 132.29167,132.29167 0 0 1 -1.915338,-1.66791 l 87.831907,-98.92746 z"
     fill="#0051ff"
     id="path225" />
  <path
     d="m 44.632555,231.37228 a 132.29167,132.29167 0 0 1 -1.885938,-1.70109 l 89.545053,-97.37951 z"
     fill="#004dff"
     id="path226" />
  <path
     d="m 42.91671,229.82733 a 132.29167,132.29167 0 0 1 -1.855962,-1.73375 l 91.230922,-95.8019 z"
     fill="#0048ff"
     id="path227" />
  <path
     d="m 41.22809,228.25266 a 132.29167,132.29167 0 0 1 -1.825422,-1.76587 l 92.889002,-94.19511 z"
     fill="#0044ff"
     id="path228" />
  <path
     d="m 39.567218,226.64878 a 132.29167,132.29167 0 0 1 -1.794335,-1.79747 l 94.518787,-92.55963 z"
     fill="#0040ff"
     id="path229" />
  <path
     d="m 37.934581,225.01614 a 132.29167,132.29167 0 0 1 -1.762691,-1.82851 l 96.11978,-90.89595 z"
     fill="#003cff"
     id="path230" />
  <path
     d="m 36.330686,223.35526 a 132.29167,132.29167 0 0 1 -1.73051,-1.859 l 97.691494,-89.20458 z"
     fill="#0037ff"
     id="path231" />
  <path
     d="m 34.756022,221.66664 a 132.29167,132.29167 0 0 1 -1.697794,-1.88891 l 99.233442,-87.48605 z"
     fill="#0033ff"
     id="path232" />
  <path
     d="m 33.211069,219.95079 a 132.29167,132.29167 0 0 1 -1.66457,-1.91824 L 132.29167,132.29168 Z"
     fill="#002fff"
     id="path233" />
  <path
     d="m 31.696296,218.20825 a 132.29167,132.29167 0 0 1 -1.630838,-1.94701 L 132.29167,132.29168 Z"
     fill="#002bff"
     id="path234" />
  <path
     d="m 30.212166,216.43953 a 132.29167,132.29167 0 0 1 -1.59661,-1.97517 L 132.29167,132.29168 Z"
     fill="#0026ff"
     id="path235" />
  <path
     d="m 28.75913,214.64518 a 132.29167,132.29167 0 0 1 -1.561895,-2.00274 L 132.29167,132.29168 Z"
     fill="#0022ff"
     id="path236" />
  <path
     d="m 27.337631,212.82574 a 132.29167,132.29167 0 0 1 -1.526705,-2.02968 L 132.29167,132.29168 Z"
     fill="#001eff"
     id="path237" />
  <path
     d="m 25.948102,210.98178 a 132.29167,132.29167 0 0 1 -1.491049,-2.05603 L 132.29167,132.29168 Z"
     fill="#001aff"
     id="path238" />
  <path
     d="m 24.590966,209.11384 a 132.29167,132.29167 0 0 1 -1.454939,-2.08173 L 132.29167,132.29168 Z"
     fill="#0015ff"
     id="path239" />
  <path
     d="m 23.266638,207.2225 a 132.29167,132.29167 0 0 1 -1.418387,-2.10681 L 132.29167,132.29168 Z"
     fill="#0011ff"
     id="path240" />
  <path
     d="M 21.975519,205.30834 A 132.29167,132.29167 0 0 1 20.594117,203.1771 L 132.29167,132.29168 Z"
     fill="#000dff"
     id="path241" />
  <path
     d="m 20.718011,203.37195 a 132.29167,132.29167 0 0 1 -1.344003,-2.15504 L 132.29167,132.29168 Z"
     fill="#0009ff"
     id="path242" />
  <path
     d="m 19.494482,201.41389 a 132.29167,132.29167 0 0 1 -1.306188,-2.17816 L 132.29167,132.29168 Z"
     fill="#0004ff"
     id="path243" />
  <path
     d="m 18.305312,199.43478 a 132.29167,132.29167 0 0 1 -1.267975,-2.20063 L 132.29167,132.29168 Z"
     fill="#0000ff"
     id="path244" />
  <path
     d="m 17.150863,197.43522 a 132.29167,132.29167 0 0 1 -1.229369,-2.22241 L 132.29167,132.29168 Z"
     fill="#0400ff"
     id="path245" />
  <path
     d="m 16.031488,195.41581 a 132.29167,132.29167 0 0 1 -1.190395,-2.24353 l 117.450577,-60.8806 z"
     fill="#0900ff"
     id="path246" />
  <path
     d="m 14.947526,193.37718 a 132.29167,132.29167 0 0 1 -1.151059,-2.26397 L 132.29167,132.29168 Z"
     fill="#0d00ff"
     id="path247" />
  <path
     d="m 13.899309,191.31993 a 132.29167,132.29167 0 0 1 -1.111372,-2.2837 L 132.29167,132.29168 Z"
     fill="#1100ff"
     id="path248" />
  <path
     d="m 12.887155,189.24471 a 132.29167,132.29167 0 0 1 -1.071346,-2.30275 L 132.29167,132.29168 Z"
     fill="#1500ff"
     id="path249" />
  <path
     d="m 11.911373,187.15214 a 132.29167,132.29167 0 0 1 -1.030994,-2.3211 L 132.29167,132.29168 Z"
     fill="#1a00ff"
     id="path250" />
  <path
     d="M 10.97226,185.04286 A 132.29167,132.29167 0 0 1 9.9819314,182.70412 L 132.29167,132.29168 Z"
     fill="#1e00ff"
     id="path251" />
  <path
     d="M 10.070102,182.91751 A 132.29167,132.29167 0 0 1 9.1207411,180.56184 L 132.29167,132.29168 Z"
     fill="#2200ff"
     id="path252" />
  <path
     d="M 9.2051745,180.77673 A 132.29167,132.29167 0 0 1 8.2970698,178.40486 L 132.29167,132.29168 Z"
     fill="#2600ff"
     id="path253" />
  <path
     d="M 8.37774,178.62119 A 132.29167,132.29167 0 0 1 7.5111686,176.23383 L 132.29167,132.29168 Z"
     fill="#2b00ff"
     id="path254" />
  <path
     d="M 7.5880552,176.45155 A 132.29167,132.29167 0 0 1 6.7632767,174.04941 L 132.29167,132.29168 Z"
     fill="#2f00ff"
     id="path255" />
  <path
     d="M 6.8363518,174.26845 A 132.29167,132.29167 0 0 1 6.053622,171.85228 l 126.238048,-39.5606 z"
     fill="#3300ff"
     id="path256" />
  <path
     d="M 6.1228633,172.07256 A 132.29167,132.29167 0 0 1 5.3824207,169.6431 L 132.29167,132.29168 Z"
     fill="#3700ff"
     id="path257" />
  <path
     d="m 5.4478071,169.86455 a 132.29167,132.29167 0 0 1 -0.6979264,-2.442 L 132.29167,132.29168 Z"
     fill="#3c00ff"
     id="path258" />
  <path
     d="M 4.8113888,167.64509 A 132.29167,132.29167 0 0 1 4.1561875,165.19128 L 132.29167,132.29168 Z"
     fill="#4000ff"
     id="path259" />
  <path
     d="M 4.2138023,165.41487 A 132.29167,132.29167 0 0 1 3.6015256,162.95 L 132.29167,132.29168 Z"
     fill="#4400ff"
     id="path260" />
  <path
     d="M 3.6552296,163.17456 A 132.29167,132.29167 0 0 1 3.086064,160.69938 l 129.205606,-28.4077 z"
     fill="#4800ff"
     id="path261" />
  <path
     d="M 3.1358408,160.92484 A 132.29167,132.29167 0 0 1 2.6099598,158.4401 L 132.29167,132.29168 Z"
     fill="#4d00ff"
     id="path262" />
  <path
     d="M 2.6557941,158.66639 A 132.29167,132.29167 0 0 1 2.1733579,156.17286 L 132.29167,132.29168 Z"
     fill="#5100ff"
     id="path263" />
  <path
     d="M 2.2152358,156.39992 A 132.29167,132.29167 0 0 1 1.7763913,153.89834 L 132.29167,132.29168 Z"
     fill="#5500ff"
     id="path264" />
  <path
     d="M 1.8143001,154.1261 A 132.29167,132.29167 0 0 1 1.4191809,151.61725 L 132.29167,132.29168 Z"
     fill="#5900ff"
     id="path265" />
  <path
     d="M 1.4531092,151.84563 A 132.29167,132.29167 0 0 1 1.1018357,149.33026 L 132.29167,132.29168 Z"
     fill="#5e00ff"
     id="path266" />
  <path
     d="M 1.1317729,149.5592 A 132.29167,132.29167 0 0 1 0.82445212,147.03809 L 132.29167,132.29168 Z"
     fill="#6200ff"
     id="path267" />
  <path
     d="M 0.85038924,147.26751 A 132.29167,132.29167 0 0 1 0.5871148,144.74142 L 132.29167,132.29168 Z"
     fill="#6600ff"
     id="path268" />
  <path
     d="M 0.60904518,144.97128 A 132.29167,132.29167 0 0 1 0.38989599,142.44096 L 132.29167,132.29168 Z"
     fill="#6a00ff"
     id="path269" />
  <path
     d="M 0.40781146,142.67117 A 132.29167,132.29167 0 0 1 0.23285579,140.13741 L 132.29167,132.29168 Z"
     fill="#6f00ff"
     id="path270" />
  <path
     d="M 0.24675088,140.3679 A 132.29167,132.29167 0 0 1 0.116042,137.83147 l 132.175628,-5.53979 z"
     fill="#7300ff"
     id="path271" />
  <path
     d="m 0.12591249,138.06216 a 132.29167,132.29167 0 0 1 -0.08642193,-2.5383 L 132.29167,132.29168 Z"
     fill="#7700ff"
     id="path272" />
  <path
     d="M 0.0453331,135.75467 A 132.29167,132.29167 0 0 1 0.00322389,133.21525 L 132.29167,132.29168 Z"
     fill="#7b00ff"
     id="path273" />
  <path
     d="M 0.00503727,133.44613 A 132.29167,132.29167 0 0 1 0.0072536,130.90635 L 132.29167,132.29168 Z"
     fill="#8000ff"
     id="path274" />
  <path
     d="m 0.00503726,131.13723 a 132.29167,132.29167 0 0 1 0.04654119,-2.53935 l 132.24009155,3.6938 z"
     fill="#8400ff"
     id="path275" />
  <path
     d="m 0.04533308,128.82868 a 132.29167,132.29167 0 0 1 0.09085188,-2.53815 L 132.29167,132.29168 Z"
     fill="#8800ff"
     id="path276" />
  <path
     d="m 0.12591245,126.52119 a 132.29167,132.29167 0 0 1 0.13513489,-2.53617 L 132.29167,132.29168 Z"
     fill="#8c00ff"
     id="path277" />
  <path
     d="m 0.24675082,124.21546 a 132.29167,132.29167 0 0 1 0.17937674,-2.53343 L 132.29167,132.29168 Z"
     fill="#9100ff"
     id="path278" />
  <path
     d="m 0.40781139,121.91219 a 132.29167,132.29167 0 0 1 0.22356395,-2.52992 L 132.29167,132.29168 Z"
     fill="#9500ff"
     id="path279" />
  <path
     d="m 0.60904509,119.61208 a 132.29167,132.29167 0 0 1 0.26768307,-2.52563 L 132.29167,132.29168 Z"
     fill="#9900ff"
     id="path280" />
  <path
     d="M 0.85039063,117.31583 A 132.29167,132.29167 0 0 1 1.1621113,114.79526 L 132.29167,132.29168 Z"
     fill="#9d00ff"
     id="path281" />
  <path
     d="m 1.1317728,115.02416 a 132.29167,132.29167 0 0 1 0.355665,-2.51477 L 132.29167,132.29168 Z"
     fill="#a200ff"
     id="path282" />
  <path
     d="m 1.453109,112.73773 a 132.29167,132.29167 0 0 1 0.3994995,-2.50817 L 132.29167,132.29168 Z"
     fill="#a600ff"
     id="path283" />
  <path
     d="m 1.8143,110.45726 a 132.29167,132.29167 0 0 1 0.4432123,-2.50082 L 132.29167,132.29168 Z"
     fill="#aa00ff"
     id="path284" />
  <path
     d="m 2.2152357,108.18344 a 132.29167,132.29167 0 0 1 0.4867874,-2.49269 L 132.29167,132.29168 Z"
     fill="#ae00ff"
     id="path285" />
  <path
     d="m 2.6557939,105.91696 a 132.29167,132.29167 0 0 1 0.5302168,-2.48381 L 132.29167,132.29168 Z"
     fill="#b300ff"
     id="path286" />
  <path
     d="m 3.1358406,103.65852 a 132.29167,132.29167 0 0 1 0.5734845,-2.47418 L 132.29167,132.29168 Z"
     fill="#b700ff"
     id="path287" />
  <path
     d="M 3.6552293,101.4088 A 132.29167,132.29167 0 0 1 4.271807,98.945 l 128.019863,33.34668 z"
     fill="#bb00ff"
     id="path288" />
  <path
     d="M 4.2138021,99.16849 A 132.29167,132.29167 0 0 1 4.873285,96.71583 l 127.418385,35.57585 z"
     fill="#bf00ff"
     id="path289" />
  <path
     d="M 4.8113886,96.93827 A 132.29167,132.29167 0 0 1 5.5135759,94.49749 L 132.29167,132.29168 Z"
     fill="#c400ff"
     id="path290" />
  <path
     d="M 5.4478069,94.71881 A 132.29167,132.29167 0 0 1 6.1924847,92.29066 L 132.29167,132.29168 Z"
     fill="#c800ff"
     id="path291" />
  <path
     d="M 6.122863,92.5108 A 132.29167,132.29167 0 0 1 6.9098046,90.09602 L 132.29167,132.29168 Z"
     fill="#cc00ff"
     id="path292" />
  <path
     d="M 6.8363515,90.31491 A 132.29167,132.29167 0 0 1 7.665317,87.91423 l 124.626353,44.37745 z"
     fill="#d000ff"
     id="path293" />
  <path
     d="m 7.5880549,88.13181 a 132.29167,132.29167 0 0 1 0.870737,-2.38585 L 132.29167,132.29168 Z"
     fill="#d500ff"
     id="path294" />
  <path
     d="M 8.3777443,85.96215 A 132.29167,132.29167 0 0 1 9.2899874,83.59186 L 132.29167,132.29168 Z"
     fill="#d900ff"
     id="path295" />
  <path
     d="M 9.2051742,83.80662 A 132.29167,132.29167 0 0 1 10.158651,81.4526 l 122.133019,50.83908 z"
     fill="#dd00ff"
     id="path296" />
  <path
     d="m 10.070102,81.66585 a 132.29167,132.29167 0 0 1 0.994415,-2.33702 l 121.227153,52.96285 z"
     fill="#e100ff"
     id="path297" />
  <path
     d="m 10.97226,79.5405 a 132.29167,132.29167 0 0 1 1.035044,-2.3193 l 120.284366,55.07048 z"
     fill="#e600ff"
     id="path298" />
  <path
     d="m 11.911373,77.43122 a 132.29167,132.29167 0 0 1 1.075364,-2.30088 l 119.304933,57.16134 z"
     fill="#ea00ff"
     id="path299" />
  <path
     d="m 12.887155,75.33865 a 132.29167,132.29167 0 0 1 1.115356,-2.28177 l 118.289159,59.2348 z"
     fill="#ee00ff"
     id="path300" />
  <path
     d="m 13.899309,73.26342 a 132.29167,132.29167 0 0 1 1.155008,-2.26195 l 117.237353,61.29021 z"
     fill="#f200ff"
     id="path301" />
  <path
     d="m 14.947526,71.20618 a 132.29167,132.29167 0 0 1 1.194309,-2.24145 l 116.149835,63.32695 z"
     fill="#f700ff"
     id="path302" />
  <path
     d="m 16.031487,69.16755 a 132.29167,132.29167 0 0 1 1.233246,-2.220266 L 132.29167,132.29168 Z"
     fill="#fb00ff"
     id="path303" />
  <path
     d="m 17.150863,67.14814 a 132.29167,132.29167 0 0 1 1.271807,-2.198401 l 113.869,67.341941 z"
     fill="#ff00ff"
     id="path304" />
  <path
     d="m 18.305311,65.148577 a 132.29167,132.29167 0 0 1 1.309981,-2.175871 L 132.29167,132.29168 Z"
     fill="#ff00fb"
     id="path305" />
  <path
     d="m 19.494481,63.169466 a 132.29167,132.29167 0 0 1 1.347756,-2.152677 L 132.29167,132.29168 Z"
     fill="#ff00f7"
     id="path306" />
  <path
     d="m 20.71801,61.21141 a 132.29167,132.29167 0 0 1 1.38512,-2.128827 l 110.18854,73.209097 z"
     fill="#ff00f2"
     id="path307" />
  <path
     d="m 21.975526,59.275007 a 132.29167,132.29167 0 0 1 1.422061,-2.10433 L 132.29167,132.29168 Z"
     fill="#ff00ee"
     id="path308" />
  <path
     d="m 23.266637,57.360855 a 132.29167,132.29167 0 0 1 1.458578,-2.079201 L 132.29167,132.29168 Z"
     fill="#ff00ea"
     id="path309" />
  <path
     d="m 24.590966,55.469518 a 132.29167,132.29167 0 0 1 1.494643,-2.053429 L 132.29167,132.29168 Z"
     fill="#ff00e6"
     id="path310" />
  <path
     d="M 25.948101,53.601581 A 132.29167,132.29167 0 0 1 27.478354,51.57455 L 132.29167,132.29168 Z"
     fill="#ff00e1"
     id="path311" />
  <path
     d="m 27.33763,51.757614 a 132.29167,132.29167 0 0 1 1.565388,-2.000006 L 132.29167,132.29168 Z"
     fill="#ff00dd"
     id="path312" />
  <path
     d="m 28.759129,49.938178 a 132.29167,132.29167 0 0 1 1.600055,-1.972381 L 132.29167,132.29168 Z"
     fill="#ff00d9"
     id="path313" />
  <path
     d="m 30.212165,48.143828 a 132.29167,132.29167 0 0 1 1.634234,-1.944156 L 132.29167,132.29168 Z"
     fill="#ff00d5"
     id="path314" />
  <path
     d="m 31.696295,46.37511 a 132.29167,132.29167 0 0 1 1.667915,-1.915338 l 98.92746,87.831908 z"
     fill="#ff00d0"
     id="path315" />
  <path
     d="m 33.211068,44.632564 a 132.29167,132.29167 0 0 1 1.701088,-1.885938 l 97.379514,89.545054 z"
     fill="#ff00cc"
     id="path316" />
  <path
     d="m 34.756022,42.916719 a 132.29167,132.29167 0 0 1 1.733743,-1.855962 l 95.801905,91.230923 z"
     fill="#ff00c8"
     id="path317" />
  <path
     d="m 36.330686,41.228099 a 132.29167,132.29167 0 0 1 1.76587,-1.825422 l 94.195114,92.889003 z"
     fill="#ff00c4"
     id="path318" />
  <path
     d="m 37.93458,39.567217 a 132.29167,132.29167 0 0 1 1.797459,-1.794325 l 92.559631,94.518788 z"
     fill="#ff00bf"
     id="path319" />
  <path
     d="m 39.567217,37.934581 a 132.29167,132.29167 0 0 1 1.828501,-1.762682 l 90.895952,96.119781 z"
     fill="#ff00bb"
     id="path320" />
  <path
     d="m 41.228098,36.330686 a 132.29167,132.29167 0 0 1 1.858986,-1.730501 l 89.204586,97.691495 z"
     fill="#ff00b7"
     id="path321" />
  <path
     d="m 42.916709,34.756031 a 132.29167,132.29167 0 0 1 1.888914,-1.697803 l 87.486047,99.233452 z"
     fill="#ff00b3"
     id="path322" />
  <path
     d="M 44.632554,33.211077 A 132.29167,132.29167 0 0 1 46.55081,31.546499 L 132.29167,132.29168 Z"
     fill="#ff00ae"
     id="path323" />
  <path
     d="m 46.3751,31.696305 a 132.29167,132.29167 0 0 1 1.947016,-1.630847 L 132.29167,132.29168 Z"
     fill="#ff00aa"
     id="path324" />
  <path
     d="m 48.143818,30.212174 a 132.29167,132.29167 0 0 1 1.975171,-1.596609 L 132.29167,132.29168 Z"
     fill="#ff00a6"
     id="path325" />
  <path
     d="m 49.938168,28.759138 a 132.29167,132.29167 0 0 1 2.002734,-1.561895 L 132.29167,132.29168 Z"
     fill="#ff00a2"
     id="path326" />
  <path
     d="m 51.757603,27.337639 a 132.29167,132.29167 0 0 1 2.029689,-1.526704 L 132.29167,132.29168 Z"
     fill="#ff009d"
     id="path327" />
  <path
     d="m 53.601571,25.948111 a 132.29167,132.29167 0 0 1 2.056023,-1.49105 L 132.29167,132.29168 Z"
     fill="#ff0099"
     id="path328" />
  <path
     d="m 55.469507,24.590975 a 132.29167,132.29167 0 0 1 2.081733,-1.45494 l 74.74043,109.155645 z"
     fill="#ff0095"
     id="path329" />
  <path
     d="M 57.360845,23.266646 A 132.29167,132.29167 0 0 1 59.467653,21.84826 L 132.29167,132.29168 Z"
     fill="#ff0091"
     id="path330" />
  <path
     d="m 59.275007,21.975527 a 132.29167,132.29167 0 0 1 2.131242,-1.381401 L 132.29167,132.29168 Z"
     fill="#ff008c"
     id="path331" />
  <path
     d="m 61.211411,20.718012 a 132.29167,132.29167 0 0 1 2.155026,-1.343996 L 132.29167,132.29168 Z"
     fill="#ff0088"
     id="path332" />
  <path
     d="m 63.169467,19.494483 a 132.29167,132.29167 0 0 1 2.178154,-1.306181 L 132.29167,132.29168 Z"
     fill="#ff0084"
     id="path333" />
  <path
     d="m 65.148578,18.305313 a 132.29167,132.29167 0 0 1 2.200618,-1.267968 L 132.29167,132.29168 Z"
     fill="#ff0080"
     id="path334" />
  <path
     d="m 67.148141,17.150865 a 132.29167,132.29167 0 0 1 2.222412,-1.229369 L 132.29167,132.29168 Z"
     fill="#ff007b"
     id="path335" />
  <path
     d="m 69.167537,16.031496 a 132.29167,132.29167 0 0 1 2.24354,-1.190401 L 132.29167,132.29168 Z"
     fill="#ff0077"
     id="path336" />
  <path
     d="M 71.206172,14.947534 A 132.29167,132.29167 0 0 1 73.470146,13.79647 L 132.29167,132.29168 Z"
     fill="#ff0073"
     id="path337" />
  <path
     d="m 73.263414,13.899317 a 132.29167,132.29167 0 0 1 2.283718,-1.111378 L 132.29167,132.29168 Z"
     fill="#ff006f"
     id="path338" />
  <path
     d="m 75.338637,12.887163 a 132.29167,132.29167 0 0 1 2.302754,-1.071346 L 132.29167,132.29168 Z"
     fill="#ff006a"
     id="path339" />
  <path
     d="m 77.431208,11.911381 a 132.29167,132.29167 0 0 1 2.321101,-1.030995 L 132.29167,132.29168 Z"
     fill="#ff0066"
     id="path340" />
  <path
     d="M 79.54049,10.972268 A 132.29167,132.29167 0 0 1 81.879231,9.981939 L 132.29167,132.29168 Z"
     fill="#ff0062"
     id="path341" />
  <path
     d="M 81.665841,10.07011 A 132.29167,132.29167 0 0 1 84.021509,9.120749 L 132.29167,132.29168 Z"
     fill="#ff005e"
     id="path342" />
  <path
     d="M 83.806613,9.205182 A 132.29167,132.29167 0 0 1 86.178491,8.297078 L 132.29167,132.29168 Z"
     fill="#ff0059"
     id="path343" />
  <path
     d="M 85.962154,8.377748 A 132.29167,132.29167 0 0 1 88.34952,7.511176 l 43.94215,124.780504 z"
     fill="#ff0055"
     id="path344" />
  <path
     d="M 88.131807,7.588058 A 132.29167,132.29167 0 0 1 90.533933,6.763284 L 132.29167,132.29168 Z"
     fill="#ff0051"
     id="path345" />
  <path
     d="M 90.314912,6.836355 A 132.29167,132.29167 0 0 1 92.731067,6.05363 l 39.560603,126.23805 z"
     fill="#ff004d"
     id="path346" />
  <path
     d="M 92.510804,6.122867 A 132.29167,132.29167 0 0 1 94.940251,5.382428 L 132.29167,132.29168 Z"
     fill="#ff0048"
     id="path347" />
  <path
     d="M 94.718813,5.447811 A 132.29167,132.29167 0 0 1 97.160812,4.749885 L 132.29167,132.29168 Z"
     fill="#ff0044"
     id="path348" />
  <path
     d="M 96.938254,4.811396 A 132.29167,132.29167 0 0 1 99.392075,4.156192 L 132.29167,132.29168 Z"
     fill="#ff0040"
     id="path349" />
  <path
     d="m 99.168477,4.21381 a 132.29167,132.29167 0 0 1 2.464883,-0.61228 l 30.65831,128.69015 z"
     fill="#ff003c"
     id="path350" />
  <path
     d="m 101.40879,3.655237 a 132.29167,132.29167 0 0 1 2.47519,-0.569169 l 28.40769,129.205612 z"
     fill="#ff0037"
     id="path351" />
  <path
     d="m 103.65851,3.135848 a 132.29167,132.29167 0 0 1 2.48474,-0.525881 l 26.14842,129.681713 z"
     fill="#ff0033"
     id="path352" />
  <path
     d="m 105.91695,2.655801 a 132.29167,132.29167 0 0 1 2.49354,-0.482436 l 23.88118,130.118315 z"
     fill="#ff002f"
     id="path353" />
  <path
     d="M 108.18343,2.215243 A 132.29167,132.29167 0 0 1 110.685,1.776398 l 21.60667,130.515282 z"
     fill="#ff002b"
     id="path354" />
  <path
     d="M 110.45725,1.814307 A 132.29167,132.29167 0 0 1 112.9661,1.419188 L 132.29167,132.29168 Z"
     fill="#ff0026"
     id="path355" />
  <path
     d="m 112.73772,1.453116 a 132.29167,132.29167 0 0 1 2.51536,-0.351273 l 17.03859,131.189837 z"
     fill="#ff0022"
     id="path356" />
  <path
     d="m 115.02415,1.13178 a 132.29167,132.29167 0 0 1 2.52111,-0.307321 l 14.74641,131.467221 z"
     fill="#ff001e"
     id="path357" />
  <path
     d="m 117.31583,0.850396 a 132.29167,132.29167 0 0 1 2.5261,-0.263274 l 12.44974,131.704558 z"
     fill="#ff001a"
     id="path358" />
  <path
     d="m 119.61208,0.609051 a 132.29167,132.29167 0 0 1 2.5303,-0.219148 l 10.14929,131.901777 z"
     fill="#ff0015"
     id="path359" />
  <path
     d="m 121.91219,0.407817 a 132.29167,132.29167 0 0 1 2.53374,-0.174955 l 7.84574,132.058818 z"
     fill="#ff0011"
     id="path360" />
  <path
     d="m 124.21546,0.246757 a 132.29167,132.29167 0 0 1 2.53641,-0.130708 l 5.5398,132.175631 z"
     fill="#ff000d"
     id="path361" />
  <path
     d="m 126.52118,0.125919 a 132.29167,132.29167 0 0 1 2.53832,-0.08642 l 3.23217,132.252181 z"
     fill="#ff0009"
     id="path362" />
  <path
     d="m 128.82867,0.04534 a 132.29167,132.29167 0 0 1 2.53944,-0.04211 l 0.92356,132.28845 z"
     fill="#ff0004"
     id="path363" />
  <circle
     cx="132.29167"
     cy="132.29166"
     r="132.29167"
     fill="url(#b)"
     id="circle363"
     style="fill:url(#b)" />
</svg>
