<?xml version="1.0" encoding="UTF-8" standalone="no"?>
<!-- Uploaded to: SVG Repo, www.svgrepo.com, Generator: SVG Repo Mixer Tools -->

<svg
   width="739.00201"
   height="708.21857"
   viewBox="0 0 48.035131 46.034207"
   version="1.1"
   id="svg2"
   xmlns="http://www.w3.org/2000/svg"
   xmlns:svg="http://www.w3.org/2000/svg">
  <defs
     id="defs2" />
  <path
     style="fill:currentColor"
     d="m 19.979034,34.010877 a 17.19,17.19 0 0 1 2.3,-8.2 c 1.7,-3 3.6,-4.2 5.1,-6.4 a 14.64,14.64 0 0 0 1.4,-13.0000001 10,10 0 0 0 -9.8,-6.4 10,10 0 0 0 -9.3999998,6.9 c -1.6,4.5000001 -0.9,9.9000001 2.6999998,13.3000001 1.5,1.4 2.9,3.6 2.1,5.7 -0.8,2.1 -3.1,2.9 -4.7999998,3.7 -3.9,1.7 -8.60000001,4.1 -9.40000001,8.7 a 6.22,6.22 0 0 0 5.90000001,7.7 H 23.079034 a 1,1 0 0 0 0.8,-1.6 16,16 0 0 1 -3.9,-10.4 z"
     id="path1" />
  <path
     d="m 44.479034,25.510877 a 12,12 0 1 0 0,17 12,12 0 0 0 0,-17 z m -14.2,2.8 a 7.91,7.91 0 0 1 9.8,-1.2 l -11,11 a 7.91,7.91 0 0 1 1.2,-9.8 z m 11.4,11.4 a 8.36,8.36 0 0 1 -9.8,1.3 l 11,-11 a 8.05,8.05 0 0 1 -1.2,9.7 z"
     id="path2"
     style="display:none" />
  <g
     id="layer1"
     style="display:none"
     transform="translate(-2.0209658,-2.9891231)">
    <path
       id="path3"
       style="fill:currentColor;stroke-width:0.238273"
       d="M 37.997705,24.967236 A 12.058412,12.028036 0 0 0 25.939189,36.995283 12.058412,12.028036 0 0 0 37.997705,49.02333 12.058412,12.028036 0 0 0 50.056094,36.995283 12.058412,12.028036 0 0 0 37.997705,24.967236 Z m -4.982783,4.983418 4.982783,4.982784 4.982783,-4.982784 2.061846,2.061846 -4.982783,4.982783 4.982783,4.982783 -2.061846,2.061846 -4.982783,-4.982783 -4.982783,4.982783 -2.061846,-2.061846 4.982783,-4.982783 -4.982783,-4.982783 z" />
  </g>
  <g
     id="layer2"
     style="display:inline"
     transform="translate(-2.0209658,-2.9891231)">
    <path
       id="ellipse5"
       style="display:inline;fill:currentColor;stroke-width:0.238273"
       d="M 37.997705,24.967236 A 12.058412,12.028036 0 0 0 25.939189,36.995283 12.058412,12.028036 0 0 0 37.997705,49.02333 12.058412,12.028036 0 0 0 50.056094,36.995283 12.058412,12.028036 0 0 0 37.997705,24.967236 Z m 7.280762,5.04791 2.23374,2.233741 -9.493047,9.493047 -2.233613,2.233613 -2.23374,-2.23374 -5.068731,-5.068604 2.23374,-2.23374 5.068604,5.06873 z" />
  </g>
</svg>
